<?xml version="1.0" encoding="UTF-8"?>
<svg id="Layer_1" xmlns="http://www.w3.org/2000/svg" version="1.1" xmlns:xlink="http://www.w3.org/1999/xlink" viewBox="0 0 512 512">
  <!-- Generator: Adobe Illustrator 29.1.0, SVG Export Plug-In . SVG Version: 2.1.0 Build 142)  -->
  <defs>
    <style>
      .st0 {
        fill: url(#linear-gradient1);
      }

      .st1 {
        fill: url(#linear-gradient);
      }

      .st2 {
        fill: #fffffe;
      }
    </style>
    <linearGradient id="linear-gradient" x1="1545.7" y1="174" x2="1899.2" y2="527.6" gradientTransform="translate(-713.9 -1210) rotate(45)" gradientUnits="userSpaceOnUse">
      <stop offset="0" stop-color="#66b9e2"/>
      <stop offset=".1" stop-color="#60b7e1"/>
      <stop offset=".3" stop-color="#50b0de"/>
      <stop offset=".5" stop-color="#35a4d9"/>
      <stop offset=".7" stop-color="#0f95d2"/>
      <stop offset=".8" stop-color="#008ecf"/>
    </linearGradient>
    <linearGradient id="linear-gradient1" x1="1144" y1="1902" x2="1144" y2="1616.7" gradientTransform="translate(-888 -1508)" gradientUnits="userSpaceOnUse">
      <stop offset="0" stop-color="#76bfe4"/>
      <stop offset=".1" stop-color="#70bde3"/>
      <stop offset=".3" stop-color="#60b6e0"/>
      <stop offset=".5" stop-color="#45abdb"/>
      <stop offset=".7" stop-color="#1f9bd5"/>
      <stop offset=".8" stop-color="#008ecf"/>
    </linearGradient>
  </defs>
  <polygon class="st1" points="256 506 6 256 256 6 506 256 256 506"/>
  <circle class="st2" cx="256" cy="256" r="153.3"/>
  <circle class="st0" cx="256" cy="256" r="138"/>
  <g>
    <path class="st2" d="M175.7,282.9c-1.4,1.2-2.7,2.2-3.8,3.2-1.1,1-2.6,1.9-4.5,2.8-1.8.9-3.6,1.6-5.4,2-1.7.4-4.2.7-7.3.7-5.9,0-10.7-2-14.6-5.9-3.9-3.9-5.8-8.9-5.8-14.9s1-8.9,2.9-12c2-3,4.8-5.4,8.5-7.2,3.7-1.8,8.2-3.1,13.4-3.8,5.2-.7,10.8-1.3,16.7-1.7v-.4c0-3.7-1.4-6.2-4-7.6-2.7-1.4-6.7-2.1-12.1-2.1s-5.3.4-8.5,1.3c-3.3.9-6.4,2-9.5,3.4h-1.8v-16.1c2-.6,5.4-1.3,9.9-2.1,4.6-.8,9.2-1.2,13.8-1.2,11.4,0,19.8,1.9,25,5.7,5.2,3.8,7.8,9.6,7.8,17.4v45.2h-20.7v-7s0,0,0,0ZM175.7,272.5v-13.8c-3.5.4-6.3.7-8.4.9-2.2.3-4.3.7-6.3,1.5-1.8.6-3.2,1.6-4.2,2.9-1,1.3-1.5,3-1.5,5.1,0,3.1.8,5.2,2.5,6.4,1.7,1.2,4.1,1.7,7.4,1.7s3.6-.4,5.5-1.2c1.9-.8,3.6-2,5.1-3.5Z"/>
    <path class="st2" d="M241.9,291.6c-5.5,0-10.5-.7-15.1-2.1-4.6-1.4-8.5-3.5-11.9-6.4-3.3-2.9-5.9-6.5-7.8-10.8-1.9-4.4-2.8-9.5-2.8-15.4s1-11.7,3-16.2c2-4.4,4.7-8.1,8.2-11,3.3-2.7,7.2-4.8,11.7-6.1,4.5-1.3,9.2-2,14-2s7.4.4,11,1.3c3.7.8,7.4,2.2,11.1,4v17.8h-2.7c-.8-.8-1.8-1.7-3-2.6s-2.5-1.8-3.9-2.6c-1.5-.8-3.2-1.5-5.1-2.1-1.9-.6-4-.9-6.3-.9-5.3,0-9.4,1.8-12.3,5.5-2.9,3.7-4.4,8.6-4.4,14.8s1.5,11.6,4.7,14.9c3.1,3.3,7.2,4.9,12.4,4.9s4.9-.3,6.9-.9c2-.6,3.7-1.3,5.1-2.1,1.4-.8,2.6-1.7,3.6-2.5,1-.9,1.8-1.7,2.5-2.4h2.7v17.7c-1.2.5-2.6,1.1-4.1,1.8-1.6.7-3.1,1.2-4.8,1.6-2,.6-3.9,1-5.7,1.3-1.8.3-4.1.5-7,.5Z"/>
    <path class="st2" d="M353.8,289.9v-33.2c0-3.3,0-6-.2-8.3-.1-2.2-.5-4.1-1.1-5.5-.6-1.4-1.5-2.5-2.8-3.1-1.2-.6-3-1-5.3-1s-3.1.4-4.7,1c-1.5.7-3.2,1.7-5.1,3v47.1h-20.7v-33.2c0-3.2,0-6-.2-8.3-.1-2.3-.5-4.1-1.1-5.5-.6-1.4-1.5-2.5-2.8-3.1-1.2-.6-3-1-5.2-1s-3.4.4-5,1.2c-1.6.8-3.2,1.7-4.8,2.8v47.1h-20.7v-66.4h20.7v7.3c3.4-2.9,6.6-5.1,9.6-6.7,3-1.6,6.4-2.4,10.1-2.4s7.6,1,10.7,2.9c3.1,1.9,5.4,4.8,7,8.6,4-3.7,7.7-6.5,11.3-8.5s7.1-3,10.7-3,5.8.5,8.3,1.5c2.5,1,4.5,2.5,6.2,4.4,1.9,2.1,3.2,4.7,4.2,7.6.9,2.9,1.4,6.8,1.4,11.5v43.2h-20.7Z"/>
  </g>
</svg>