<?xml version="1.0" encoding="UTF-8"?>
<svg id="vectorflags.com" xmlns="http://www.w3.org/2000/svg" xmlns:xlink="http://www.w3.org/1999/xlink" viewBox="0 0 600 600">
  <defs>
    <style>
      .cls-1 {
        fill: #b22234;
      }

      .cls-2 {
        fill: #fff;
      }

      .cls-3 {
        fill: none;
      }

      .cls-4 {
        fill: #3c3b6e;
      }

      .cls-5 {
        clip-path: url(#clippath);
      }
    </style>
    <clipPath id="clippath">
      <circle class="cls-3" cx="300" cy="300" r="300"/>
    </clipPath>
  </defs>
  <g class="cls-5">
    <g>
      <g>
        <rect class="cls-1" x="-155.76" y="369.23" width="1139.24" height="46.15"/>
        <rect class="cls-1" x="-155.76" y="276.92" width="1139.24" height="46.15"/>
        <rect class="cls-1" x="-155.76" y="553.85" width="1139.24" height="46.15"/>
        <rect class="cls-1" x="-155.76" y="461.54" width="1139.24" height="46.15"/>
        <rect class="cls-1" x="-155.76" width="1139.24" height="46.15"/>
        <rect class="cls-1" x="-155.76" y="92.31" width="1139.24" height="46.15"/>
        <rect class="cls-1" x="-155.76" y="184.62" width="1139.24" height="46.15"/>
      </g>
      <path class="cls-2" d="M983.48,553.85H-155.76v-46.15H983.48v46.15ZM983.48,461.54H-155.76v-46.15H983.48v46.15ZM983.48,369.23H-155.76v-46.15H983.48v46.15ZM983.48,276.92H-155.76v-46.15H983.48v46.15ZM983.48,184.62H-155.76v-46.15H983.48v46.15ZM983.48,92.31H-155.76v-46.15H983.48v46.15Z"/>
      <rect class="cls-4" x="-155.76" width="455.7" height="323.08"/>
      <path class="cls-2" d="M-3.86,175.38l-4.14,12.76h-13.4l10.84,7.88-4.14,12.76,10.84-7.88,10.84,7.88-4.14-12.76,10.84-7.88H.28l-4.14-12.76ZM-3.86,46.15l-4.14,12.76h-13.4l10.84,7.88-4.14,12.76,10.84-7.88,10.84,7.88-4.14-12.76,10.84-7.88H.28l-4.14-12.76ZM.28,252.76l-4.14-12.76-4.14,12.76h-13.4l10.84,7.88-4.14,12.76,10.84-7.88,10.84,7.88-4.14-12.76,10.84-7.88H.28ZM-3.86,110.77l-4.14,12.76h-13.4l10.84,7.88-4.14,12.76,10.84-7.88,10.84,7.88-4.14-12.76,10.84-7.88H.28l-4.14-12.76ZM-41.84,143.08l-4.14,12.76h-13.4l10.84,7.88-4.14,12.76,10.84-7.88,10.84,7.88-4.14-12.76,10.84-7.88h-13.4l-4.14-12.76ZM-41.84,78.46l-4.14,12.76h-13.4l10.84,7.88-4.14,12.76,10.84-7.88,10.84,7.88-4.14-12.76,10.84-7.88h-13.4l-4.14-12.76ZM-41.84,13.85l-4.14,12.76h-13.4l10.84,7.88-4.14,12.76,10.84-7.88,10.84,7.88-4.14-12.76,10.84-7.88h-13.4l-4.14-12.76ZM38.26,285.06l-4.14-12.76-4.14,12.76h-13.4l10.84,7.88-4.14,12.76,10.84-7.88,10.84,7.88-4.14-12.76,10.84-7.88h-13.4ZM34.11,13.85l-4.14,12.76h-13.4l10.84,7.88-4.14,12.76,10.84-7.88,10.84,7.88-4.14-12.76,10.84-7.88h-13.4l-4.14-12.76ZM34.11,78.46l-4.14,12.76h-13.4l10.84,7.88-4.14,12.76,10.84-7.88,10.84,7.88-4.14-12.76,10.84-7.88h-13.4l-4.14-12.76ZM34.11,143.08l-4.14,12.76h-13.4l10.84,7.88-4.14,12.76,10.84-7.88,10.84,7.88-4.14-12.76,10.84-7.88h-13.4l-4.14-12.76ZM34.11,207.69l-4.14,12.76h-13.4l10.84,7.88-4.14,12.76,10.84-7.88,10.84,7.88-4.14-12.76,10.84-7.88h-13.4l-4.14-12.76ZM-79.81,175.38l-4.14,12.76h-13.4l10.84,7.88-4.14,12.76,10.84-7.88,10.84,7.88-4.14-12.76,10.84-7.88h-13.4l-4.14-12.76ZM-117.79,143.08l-4.14,12.76h-13.4l10.84,7.88-4.14,12.76,10.84-7.88,10.84,7.88-4.14-12.76,10.84-7.88h-13.4l-4.14-12.76ZM-41.84,207.69l-4.14,12.76h-13.4l10.84,7.88-4.14,12.76,10.84-7.88,10.84,7.88-4.14-12.76,10.84-7.88h-13.4l-4.14-12.76ZM-117.79,13.85l-4.14,12.76h-13.4l10.84,7.88-4.14,12.76,10.84-7.88,10.84,7.88-4.14-12.76,10.84-7.88h-13.4l-4.14-12.76ZM261.96,78.46l-4.14,12.76h-13.4l10.84,7.88-4.14,12.76,10.84-7.88,10.84,7.88-4.14-12.76,10.84-7.88h-13.4l-4.14-12.76ZM-113.64,285.06l-4.14-12.76-4.14,12.76h-13.4l10.84,7.88-4.14,12.76,10.84-7.88,10.84,7.88-4.14-12.76,10.84-7.88h-13.4ZM251.12,47.24l10.84-7.88,10.84,7.88-4.14-12.76,10.84-7.88h-13.4l-4.14-12.76-4.14,12.76h-13.4l10.84,7.88-4.14,12.76ZM-117.79,207.69l-4.14,12.76h-13.4l10.84,7.88-4.14,12.76,10.84-7.88,10.84,7.88-4.14-12.76,10.84-7.88h-13.4l-4.14-12.76ZM-79.81,46.15l-4.14,12.76h-13.4l10.84,7.88-4.14,12.76,10.84-7.88,10.84,7.88-4.14-12.76,10.84-7.88h-13.4l-4.14-12.76ZM-37.69,285.06l-4.14-12.76-4.14,12.76h-13.4l10.84,7.88-4.14,12.76,10.84-7.88,10.84,7.88-4.14-12.76,10.84-7.88h-13.4ZM-75.67,252.76l-4.14-12.76-4.14,12.76h-13.4l10.84,7.88-4.14,12.76,10.84-7.88,10.84,7.88-4.14-12.76,10.84-7.88h-13.4ZM-79.81,110.77l-4.14,12.76h-13.4l10.84,7.88-4.14,12.76,10.84-7.88,10.84,7.88-4.14-12.76,10.84-7.88h-13.4l-4.14-12.76ZM76.23,252.76l-4.14-12.76-4.14,12.76h-13.4l10.84,7.88-4.14,12.76,10.84-7.88,10.84,7.88-4.14-12.76,10.84-7.88h-13.4ZM-117.79,78.46l-4.14,12.76h-13.4l10.84,7.88-4.14,12.76,10.84-7.88,10.84,7.88-4.14-12.76,10.84-7.88h-13.4l-4.14-12.76ZM186.01,13.85l-4.14,12.76h-13.4l10.84,7.88-4.14,12.76,10.84-7.88,10.84,7.88-4.14-12.76,10.84-7.88h-13.4l-4.14-12.76ZM186.01,78.46l-4.14,12.76h-13.4l10.84,7.88-4.14,12.76,10.84-7.88,10.84,7.88-4.14-12.76,10.84-7.88h-13.4l-4.14-12.76ZM228.13,252.76l-4.14-12.76-4.14,12.76h-13.4l10.84,7.88-4.14,12.76,10.84-7.88,10.84,7.88-4.14-12.76,10.84-7.88h-13.4ZM186.01,143.08l-4.14,12.76h-13.4l10.84,7.88-4.14,12.76,10.84-7.88,10.84,7.88-4.14-12.76,10.84-7.88h-13.4l-4.14-12.76ZM223.99,175.38l-4.14,12.76h-13.4l10.84,7.88-4.14,12.76,10.84-7.88,10.84,7.88-4.14-12.76,10.84-7.88h-13.4l-4.14-12.76ZM186.01,207.69l-4.14,12.76h-13.4l10.84,7.88-4.14,12.76,10.84-7.88,10.84,7.88-4.14-12.76,10.84-7.88h-13.4l-4.14-12.76ZM223.99,110.77l-4.14,12.76h-13.4l10.84,7.88-4.14,12.76,10.84-7.88,10.84,7.88-4.14-12.76,10.84-7.88h-13.4l-4.14-12.76ZM190.15,285.06l-4.14-12.76-4.14,12.76h-13.4l10.84,7.88-4.14,12.76,10.84-7.88,10.84,7.88-4.14-12.76,10.84-7.88h-13.4ZM261.96,207.69l-4.14,12.76h-13.4l10.84,7.88-4.14,12.76,10.84-7.88,10.84,7.88-4.14-12.76,10.84-7.88h-13.4l-4.14-12.76ZM261.96,143.08l-4.14,12.76h-13.4l10.84,7.88-4.14,12.76,10.84-7.88,10.84,7.88-4.14-12.76,10.84-7.88h-13.4l-4.14-12.76ZM266.1,285.06l-4.14-12.76-4.14,12.76h-13.4l10.84,7.88-4.14,12.76,10.84-7.88,10.84,7.88-4.14-12.76,10.84-7.88h-13.4ZM223.99,46.15l-4.14,12.76h-13.4l10.84,7.88-4.14,12.76,10.84-7.88,10.84,7.88-4.14-12.76,10.84-7.88h-13.4l-4.14-12.76ZM148.04,175.38l-4.14,12.76h-13.4l10.84,7.88-4.14,12.76,10.84-7.88,10.84,7.88-4.14-12.76,10.84-7.88h-13.4l-4.14-12.76ZM110.06,207.69l-4.14,12.76h-13.4l10.84,7.88-4.14,12.76,10.84-7.88,10.84,7.88-4.14-12.76,10.84-7.88h-13.4l-4.14-12.76ZM114.2,285.06l-4.14-12.76-4.14,12.76h-13.4l10.84,7.88-4.14,12.76,10.84-7.88,10.84,7.88-4.14-12.76,10.84-7.88h-13.4ZM110.06,143.08l-4.14,12.76h-13.4l10.84,7.88-4.14,12.76,10.84-7.88,10.84,7.88-4.14-12.76,10.84-7.88h-13.4l-4.14-12.76ZM72.09,110.77l-4.14,12.76h-13.4l10.84,7.88-4.14,12.76,10.84-7.88,10.84,7.88-4.14-12.76,10.84-7.88h-13.4l-4.14-12.76ZM72.09,46.15l-4.14,12.76h-13.4l10.84,7.88-4.14,12.76,10.84-7.88,10.84,7.88-4.14-12.76,10.84-7.88h-13.4l-4.14-12.76ZM148.04,46.15l-4.14,12.76h-13.4l10.84,7.88-4.14,12.76,10.84-7.88,10.84,7.88-4.14-12.76,10.84-7.88h-13.4l-4.14-12.76ZM148.04,110.77l-4.14,12.76h-13.4l10.84,7.88-4.14,12.76,10.84-7.88,10.84,7.88-4.14-12.76,10.84-7.88h-13.4l-4.14-12.76ZM72.09,175.38l-4.14,12.76h-13.4l10.84,7.88-4.14,12.76,10.84-7.88,10.84,7.88-4.14-12.76,10.84-7.88h-13.4l-4.14-12.76ZM152.18,252.76l-4.14-12.76-4.14,12.76h-13.4l10.84,7.88-4.14,12.76,10.84-7.88,10.84,7.88-4.14-12.76,10.84-7.88h-13.4ZM110.06,78.46l-4.14,12.76h-13.4l10.84,7.88-4.14,12.76,10.84-7.88,10.84,7.88-4.14-12.76,10.84-7.88h-13.4l-4.14-12.76ZM110.06,13.85l-4.14,12.76h-13.4l10.84,7.88-4.14,12.76,10.84-7.88,10.84,7.88-4.14-12.76,10.84-7.88h-13.4l-4.14-12.76Z"/>
    </g>
  </g>
</svg>