<?xml version="1.0" encoding="UTF-8"?>
<svg id="Layer_1" xmlns="http://www.w3.org/2000/svg" version="1.1" viewBox="0 0 512 512">
  <!-- Generator: Adobe Illustrator 29.1.0, SVG Export Plug-In . SVG Version: 2.1.0 Build 142)  -->
  <path d="M204.2,8.8c5.6-1.4,11.3-2.1,16.9-2.8l26.1,149.3c-5.6.7-11.3,1.4-16.9,2.8L204.2,8.8ZM197.8,173.6c5.6-4.2,11.3-7,17.6-9.9L140,32.1c-5.6,3.5-12,6.3-17.6,9.9l75.5,131.7ZM154.8,256c0-5.6.7-11.3,1.4-16.2H6.7c-.7,4.9-.7,9.9-.7,15.5s0,9.9.7,14.8h149.5c-.7-4.9-1.4-9.2-1.4-14.1M357.9,256c0,56.3-45.1,101.4-101.6,101.4s-91.7-36.6-100.1-84.5L15.2,324.3c2.8,11.3,7.1,21.8,11.3,31.7l139.6-51.4-113.5,97.2c7.1,9.9,15.5,19.7,24,28.9l106.5-90.1-69.8,121.8c11.3,7.7,22.6,14.8,35.3,20.4l65.6-114.8-22.6,130.3c14.1,3.5,28.2,6.3,43,7.7l21.2-121.8,21.2,121.8c15.5-1.4,30.3-4.2,45.1-7.7l-19.7-112.7,57.1,99.3c15.5-7,30.3-15.5,44.4-26.1l-52.2-91.5,80.4,67.6c12.7-12.7,24-26.8,33.9-41.5l-71.9-60.6,87.4,32.4c8.5-16.9,14.1-34.5,18.3-53.5l-76.9-28.2h81.8c.7-9.2,1.4-19,1.4-28.9s-.7-22.5-2.1-33.1h-151.6c3.5,11.3,5.6,22.5,5.6,34.5M157.6,232.8c2.1-9.2,5.6-17.6,9.9-25.4L26.5,156c-3.5,8.5-6.3,16.9-9.2,25.4l140.3,51.4ZM445.4,89.8l-115,96.5c2.8,2.8,5.6,6.3,7.8,9.2l115-96.5c-2.1-2.8-4.9-6.3-7.8-9.2M388.2,41.2c-4.2-2.8-8.5-4.9-12-7l-75.5,130.3c4.2,2.1,8.5,4.2,12.7,7l74.8-130.3ZM187.9,181.4l-115.7-97.2c-5.6,5.6-10.6,12-15.5,18.3l115,97.2c4.9-7,9.9-12.7,16.2-18.3M266.9,155.3c4.9.7,9.9,1.4,14.8,2.8l26.1-149.3c-4.9-.7-9.9-2.1-14.8-2.8l-26.1,149.3Z"/>
</svg>