<?xml version="1.0" encoding="UTF-8"?>
<svg id="Layer_3" data-name="Layer 3" xmlns="http://www.w3.org/2000/svg" viewBox="0 0 512 512">
  <defs>
    <style>
      .cls-1 {
        fill: #be0000;
      }
    </style>
  </defs>
  <path class="cls-1" d="M480.54,186.2c-7.85-24.65-6.75-54.06-21.45-74.62-15.02-21-43.35-29.4-64.08-44.69-20.53-15.14-37.02-39.88-61.74-47.97-23.71-7.77-51.25,2.19-77.54,2.19s-53.08-10.09-76.5-2.53c-24.48,7.9-40.85,32.41-61.26,47.21-20.85,15.12-49.25,23.31-64.42,44.18-15.03,20.67-14.25,50.35-22.29,75.24-7.71,23.88-25.95,47.13-25.95,73.6s18.12,49.03,25.63,72.62c7.85,24.65,6.75,54.06,21.45,74.62,15.01,21,43.36,29.4,64.08,44.69,20.53,15.14,37.02,39.88,61.74,47.97,23.71,7.77,51.25-2.19,77.54-2.19s53.08,10.09,76.5,2.53c24.48-7.9,40.85-32.4,61.26-47.2,20.85-15.12,49.25-23.31,64.42-44.18,15.03-20.68,14.25-50.35,22.29-75.24,7.71-23.88,25.95-47.13,25.95-73.61s-18.12-49.02-25.63-72.61ZM254.77,486.91c-126.34,0-228.76-102.42-228.76-228.76S128.43,29.39,254.77,29.39s228.76,102.42,228.76,228.76-102.42,228.76-228.76,228.76ZM192.16,245.04c-1.63,2.03-3.19,4.12-4.62,6.31,1.43-2.19,2.99-4.28,4.62-6.31ZM398.39,228.11l-1.81-2.54,9.25-1.61c-1.33-5.87-2.97-11.61-4.93-17.2l-12.61,7.16-2.43-3.42,14.8-4.45c-2.04-5.72-4.43-11.28-7.1-16.67l-14.94,10.96-2.71-3.82,17.43-7.59c-2.75-5.5-5.8-10.82-9.15-15.93l-15.05,14-.82-1.16-16.56,16.57-6.75-6.84,39.06-22.78c-3.42-5.19-7.15-10.15-11.14-14.87l-30.19,35.35-7.23-7.33,37.4-28.03c-28.32-33.48-70.45-54.74-117.54-54.74-43.68,0-83.09,18.3-111.17,47.67l42.25,36.08-28.25-48.46,38.19,41.09-22.41-51.43,32.38,44.08-29.54,22.34-32.7-43.62c-4.23,4.43-8.21,9.09-11.9,14l44.32,29.84-9.34,7.06-35.19-36.64c-3.37,4.5-6.48,9.2-9.36,14.06l43.56,23.32-8.98,6.79-34.85-29.62c-2.87,4.89-5.47,9.96-7.8,15.18l23.41,9.37-4.01,4.44-19.72-13.09c-2.17,4.92-4.1,9.98-5.77,15.15l18.88,5.25-3.48,3.85-15.72-8.14c-1.58,5.03-2.92,10.16-3.99,15.39l11.46,1.88-2.6,2.87-9.09-3.51c-1.92,9.79-2.95,19.91-2.95,30.27,0,85.87,69.12,155.48,154.38,155.48s154.38-69.61,154.38-155.48c0-11.58-1.29-22.85-3.68-33.71l-7.67,3.16ZM368.31,192.63l16.57,24.09-23.34-15.81,6.77-8.29ZM333.32,183.73l-6.95-7.04,33.04-31.73-26.09,38.77ZM324.06,174.34l-6.74-6.83,28.16-33.11-21.42,39.95ZM314.24,164.39l-6.2-6.29,21.9-32.99-15.7,39.28ZM314,117.81l-10.06,36.12-5.66-5.74,15.72-30.39ZM191.02,119.61l25.86,45.57-.69-.42-9.44,7.14-15.73-52.29ZM154.95,211.08h-.02s-.04-.02-.04-.02l.05.02ZM142.39,204.67l7.53,12.81-14.31-4.52,6.78-8.29ZM243.34,390.96c-.56,1.82-2.45,1.47-2.45,1.47,0,0-9.45-.59-23.7-5.24-1.27,3.1-5.21,9.46-15.18,8.06,0,0,2.22-8.61,9.14-10.18-3.37-1.27-6.94-2.75-10.67-4.48-1.94,2.94-6.84,7.99-16.04,5.11,0,0,3.15-7.16,9.38-8.41-3.08-1.62-6.25-3.41-9.46-5.39-1.96,2.61-7.47,7.93-16.86,3.87,0,0,4.39-7.63,11.42-7.39-2.61-1.76-5.25-3.63-7.9-5.66-.59-.45-1.15-.94-1.73-1.4-2.71,2.34-8.66,5.72-16.65.67,0,0,4.65-5.8,10.77-5.72-2.89-2.65-5.58-5.39-8.1-8.16-2.82,2.03-9.29,5.1-16.9-.99,0,0,5.83-5.83,12.3-4.33-2.79-3.4-5.27-6.73-7.48-9.9-3.1,1.77-9.61,3.97-16.49-2.54,0,0,6.29-5.32,12.61-3.29-2.63-4.15-4.63-7.69-6-10.26-3.13,1.62-9.86,3.64-16.5-3.35,0,0,6.42-4.87,12.55-2.7-6.68-4.96-3.21-14.72-3.21-14.72,5.68,2.77,7.66,6.75,8.19,10.14,1.86-5.16,7.58-7.95,7.58-7.95,3.48,9.8-2.44,14.95-5.12,16.66,1.45,2.66,3.63,6.41,6.51,10.8-.37-7.2,7.54-11.59,7.54-11.59,3.9,9.35-1.35,14.77-4.01,16.75,2.25,3.16,4.81,6.49,7.67,9.89-.67-6.96,6.59-11.83,6.59-11.83,4.45,8.6.28,14.32-2.27,16.72,2.87,3.12,5.99,6.21,9.35,9.2-2.34-7.27,5-13.46,5-13.46,5.56,8.33,1.61,14.62-.63,17.14.56.45,1.09.91,1.66,1.36,2.34,1.8,4.68,3.49,7,5.07-2.06-6.39,3.42-12.7,3.42-12.7,6.36,6.92,4.16,13.35,2.35,16.45,3.57,2.21,7.09,4.16,10.51,5.9-3.89-6.39,1.51-14.09,1.51-14.09,7.48,6.58,5.34,13.64,3.82,16.68,3.3,1.52,6.48,2.82,9.52,3.96-3.65-5.61-.06-13.12-.06-13.12,8.09,5.06,7.54,11.97,6.6,15.39,14.08,4.49,23.53,4.99,23.53,4.99,0,0,1.36,1.14.91,2.59ZM222.95,360.98l-26.75-26.59v-66.77h-11.44,0c-1.31,2.4-3.48,4.88-6.38,7.29-10.1,8.42-12.98,16.36-13.23,22.12,0,0-8.17-12.98.25-29.58,0,0-16.6,2.4-23.34,20.92,0,0-5.66-23.94,14.92-39.2,10.23-7.59,8.34-15.72,6.23-20.57-.75-1.76-2.51-3.45,1.26-7.5,13.52-16.21,31.2-28.86,51.39-36.32,0,0,0,0,0,0l-10.96-3.02,13.58-9.98,12.65,8.46c2.63-.59,5.3-1.08,8-1.49l-20.81-12.72-9.18-52.92,21.37,51.81-3.58-55.94,15.47,53.89,2.95-56,9.38,55.29,8.19-55.35,2.7,55.9,14.41-54.14-2.89,55.95,20.18-52.26-7.2,44.11-21.44,21.44c16.19,1.44,31.45,6.04,45.18,13.2l-30.61-19.48,16.02-14.51,41.97,51.41-9.52-6.06c6.8,5.23,13.03,11.15,18.58,17.67,1.62,2.18,2.92,5.85,1.62,8.61-1.2,2.54-7.3,10.17,6.65,20.51,20.58,15.26,14.92,39.2,14.92,39.2-6.73-18.52-23.33-20.92-23.33-20.92,8.42,16.6.24,29.58.24,29.58-.24-5.76-3.12-13.71-13.23-22.12-4.42-3.68-6.65-6.91-7.42-10.69v3.4h-13.36v66.77l-26.76,26.59h-66.64ZM383.09,330.36c-6.89,6.51-13.4,4.31-16.5,2.54-2.21,3.17-4.69,6.51-7.48,9.9,6.47-1.5,12.3,4.33,12.3,4.33-7.62,6.09-14.08,3.02-16.9.99-2.51,2.77-5.21,5.51-8.1,8.16,6.12-.08,10.77,5.72,10.77,5.72-7.99,5.05-13.95,1.66-16.66-.67-.58.46-1.13.95-1.73,1.4-2.65,2.02-5.29,3.9-7.9,5.66,7.03-.24,11.42,7.39,11.42,7.39-9.4,4.07-14.91-1.26-16.87-3.87-3.22,1.98-6.38,3.77-9.46,5.39,6.23,1.25,9.38,8.41,9.38,8.41-9.21,2.88-14.1-2.18-16.04-5.11-3.73,1.73-7.29,3.21-10.67,4.48,6.92,1.57,9.14,10.18,9.14,10.18-9.97,1.41-13.91-4.96-15.18-8.06-14.25,4.65-23.7,5.24-23.7,5.24,0,0-1.89.35-2.45-1.47-.45-1.45.91-2.59.91-2.59,0,0,9.45-.5,23.53-4.99-.94-3.42-1.49-10.33,6.6-15.39,0,0,3.59,7.51-.06,13.12,3.04-1.14,6.22-2.44,9.52-3.96-1.52-3.03-3.66-10.09,3.82-16.68,0,0,5.4,7.71,1.51,14.09,3.42-1.74,6.93-3.69,10.5-5.9-1.81-3.1-4.01-9.53,2.35-16.45,0,0,5.48,6.31,3.42,12.7,2.32-1.58,4.65-3.26,6.99-5.07.57-.44,1.1-.91,1.66-1.36-2.24-2.52-6.18-8.81-.63-17.14,0,0,7.34,6.19,5,13.46,3.36-2.98,6.48-6.07,9.35-9.2-2.55-2.4-6.72-8.12-2.27-16.72,0,0,7.25,4.87,6.59,11.83,2.85-3.4,5.42-6.73,7.67-9.89-2.66-1.98-7.91-7.4-4-16.75,0,0,7.9,4.38,7.54,11.58,2.88-4.39,5.06-8.13,6.51-10.79-2.67-1.7-8.59-6.85-5.12-16.66,0,0,5.72,2.79,7.59,7.95.53-3.39,2.51-7.37,8.19-10.14,0,0,3.48,9.77-3.21,14.73,6.14-2.17,12.55,2.7,12.55,2.7-6.64,6.99-13.37,4.97-16.5,3.35-1.37,2.57-3.36,6.11-6,10.26,6.31-2.03,12.61,3.29,12.61,3.29ZM303.98,227.47c4.45,2.85,8.6,6.11,12.42,9.73-3.81-3.62-7.97-6.87-12.42-9.73ZM262.97,227.47h41.01c-13.3-8.53-29.16-13.44-46.22-13.44s-32.8,4.91-46.06,13.44h37.88v40.15h-13.4v53.25h40.15v-53.25h-13.36v-40.15ZM211.69,227.48c-4.68,3.01-9.02,6.48-12.98,10.35,3.96-3.86,8.3-7.34,12.98-10.35Z"/>
  <path class="cls-1" d="M363.61,251.77c-14.32-10.91-9.99-19.64-8.75-22.32,1.33-2.91-.52-7.76-2.18-10.06-22.88-27.61-56.43-44.14-94.5-44.14s-72.27,15.75-95.15,43.93c-3.86,4.27-2.73,8.36-1.96,10.22,2.18,5.11,3.01,11.42-7.5,19.43-21.14,16.09-13.04,45.84-13.04,45.84,6.92-19.53,20.82-23.55,20.82-23.55-8.65,17.52,5.47,34.06,5.47,34.06.25-6.08.35-17.19,10.72-26.07,6.46-5.53,12.86-13.05,10.3-17.66-1.4-2.5-1.77-4.05-.21-6.52,15.25-24.02,40.42-38.9,70.44-38.9s53.01,14.1,68.75,37.01c2.19,2.6,1.15,6.94.84,9.04-1.09,7.74,4.29,11.41,11.35,17.45,10.39,8.88,10.05,17.68,10.3,23.76,0,0,12.38-15.39,3.73-32.91,0,0,13.96,4.54,20.87,24.08,0,0,10.83-26.59-10.3-42.68ZM373.45,288.38c-6.73-18.52-23.33-20.92-23.33-20.92,8.42,16.6.24,29.58.24,29.58-.24-5.76-3.12-13.71-13.23-22.12-6.87-5.73-8.51-10.34-7.45-17.67.3-1.99-.46-5.28-2.6-7.74-15.32-21.71-40.67-35.47-69.33-35.47s-55.37,14.56-70.22,37.33c-1.52,2.35-3.63,6-2.27,8.36,2.49,4.37-.6,9.95-6.89,15.19-10.1,8.42-12.98,16.36-13.23,22.12,0,0-8.17-12.98.25-29.58,0,0-16.6,2.4-23.34,20.92,0,0-5.66-23.94,14.92-39.2,10.23-7.59,8.34-15.72,6.23-20.57-.75-1.76-2.51-3.45,1.26-7.5,22.27-26.71,55.8-43.83,93.3-43.83s70.23,16.6,92.51,42.77c1.62,2.18,2.92,5.85,1.62,8.61-1.2,2.54-7.3,10.17,6.65,20.51,20.58,15.26,14.92,39.2,14.92,39.2Z"/>
  <g>
    <path class="cls-1" d="M83.62,290.36l-1.87.25c-.31-1.83-.57-2.9-.81-3.22-.23-.32-.57-.51-1.01-.58-.69-.08-2.69.1-6.01.55l-13.82,1.85c-3.77.5-5.87.82-6.31.95l.44,3.26c.22,1.64.46,3.08.74,4.31.11.5.21.78.3.84.11.1.39.15.84.17,1.09.05,2.31,0,3.64-.14l.25,1.88c-3.13.48-4.89.75-5.29.81-.67.13-1.38.3-2.15.5l-.26-.18c-.04-.72-.11-1.48-.19-2.29-.14-1.31-.46-3.82-.96-7.54l-1.23-9.2c-.51-3.83-.87-6.38-1.07-7.67-.11-.69-.24-1.4-.39-2.1l.2-.26c.95,0,1.78-.03,2.49-.1.12,0,1.8-.2,5.04-.59l.25,1.88c-1.19.19-2.31.44-3.37.75-.54.16-.85.31-.95.43-.06.1-.08.35-.06.76.04,1.26.18,2.78.42,4.53l.44,3.27c.54-.03,2.65-.29,6.33-.78l13.82-1.85c3.32-.44,5.31-.8,5.96-1.06.39-.16.65-.43.8-.8.14-.38.13-1.48-.06-3.32l1.88-.25c.29,2.97.57,5.47.84,7.5.29,2.16.68,4.65,1.15,7.45Z"/>
    <path class="cls-1" d="M80.31,266.6l-2.05-.12c.06-1.46.06-2.35.02-2.68-.04-.32-.12-.57-.23-.73-.11-.16-.27-.28-.48-.35-.45-.18-1.52-.33-3.21-.44l-4.61-.36-10.86-.65-4.58-.19c-1.72-.09-2.81-.07-3.29.06-.22.05-.39.14-.52.28-.12.14-.23.37-.32.69-.09.32-.19,1.21-.31,2.68l-2.05-.12c.25-2.51.47-5.17.63-7.97.15-2.5.23-4.73.24-6.67l2.05.12c-.04,1.66-.03,2.64.02,2.94.05.3.15.51.3.65.15.13.68.26,1.6.37,1.56.23,3.82.44,6.78.61l2.66.16c.17-1.1.36-3.43.57-6.98.27-4.47.38-7.23.34-8.29l-2.66-.16c-2.39-.14-3.92-.22-4.6-.23-2.06,0-3.21.01-3.48.06-.19.04-.33.1-.44.2-.11.1-.2.28-.29.55-.09.27-.21,1.25-.37,2.94l-2.05-.12c.22-1.93.41-4.15.56-6.65.17-2.8.27-5.46.32-7.99l2.05.12c-.06,1.46-.06,2.36-.02,2.68.04.33.12.57.23.73.11.16.27.28.48.35.47.18,1.54.33,3.21.44l4.64.36,10.86.65,4.55.19c1.73.09,2.83.08,3.29-.03.22-.07.4-.16.53-.3.13-.14.24-.37.32-.69.08-.32.18-1.21.3-2.68l2.05.12c-.25,2.52-.47,5.17-.63,7.97-.15,2.51-.23,4.73-.24,6.67l-2.05-.12c.04-1.7.03-2.71-.02-3.02-.05-.31-.15-.53-.3-.67-.15-.13-.68-.26-1.61-.38-1.58-.16-3.85-.34-6.83-.52l-4.86-.29c-.15.77-.34,3.01-.56,6.72-.21,3.56-.34,5.94-.38,7.13-.01.48,0,.95.03,1.42l4.86.29c2.42.14,3.96.2,4.63.17,2.07,0,3.24-.02,3.52-.07.17-.04.31-.1.42-.19.11-.09.2-.27.29-.54.09-.27.21-1.22.37-2.88l2.05.12c-.22,1.93-.41,4.15-.56,6.66-.17,2.8-.27,5.46-.32,7.98Z"/>
    <path class="cls-1" d="M83.58,227.11l-1.22-.31c-.2-1-.45-1.84-.76-2.52-.61-.25-1.61-.58-3.01-1-2.55-.77-4.42-1.31-5.59-1.6l-10.14-2.56c-.39-.1-1.86-.43-4.42-1.01-1.71-.38-2.77-.54-3.19-.47-.17.04-.31.12-.42.25-.28.35-.68,1.38-1.21,3.08l-1.73-.44,1.26-5.19c.25-1.02.5-2.01.73-2.95.51-2.04,1.06-4.31,1.65-6.82l1.03-4.56c.13-.54.44-1.61.91-3.24.04-.15.15-.38.33-.7l.33-.08,3.13,1.25c.22.07,1.28.42,3.19,1.05l-.44,1.73c-1.78-.42-2.89-.63-3.32-.62-.23,0-.4.06-.52.15-.18.16-.45.72-.81,1.69-.53,1.43-.98,2.84-1.33,4.25-.33,1.32-.62,2.68-.87,4.08,1.65.63,3.78,1.28,6.4,1.94l4.63,1.17c.36-.98.67-2.01.95-3.11.09-.34.37-1.57.84-3.71.19-.8.25-1.28.2-1.45-.05-.16-.18-.31-.39-.44-.52-.32-1.45-.66-2.77-1.03l.46-1.84,4.93,1.35,4.96,1.14-.46,1.83c-1.73-.45-2.84-.61-3.3-.47-.34.1-.61.38-.8.82-.43.99-.84,2.29-1.25,3.91-.37,1.46-.62,2.66-.75,3.63l9.46,2.38c1.06.27,1.97.46,2.75.58.4-1.17.81-2.58,1.23-4.23.4-1.6.72-3.09.96-4.47.24-1.38.3-2.25.18-2.62-.03-.12-.14-.25-.33-.39-.65-.45-1.94-1.07-3.87-1.87l.46-1.83c2.9,1.07,5.31,1.85,7.23,2.33l.22.36c-.14.98-.43,2.35-.87,4.11l-.98,3.58c-.94,3.53-1.59,5.98-1.92,7.32-.09.36-.67,2.86-1.73,7.51Z"/>
    <path class="cls-1" d="M67.28,175.56l-1.71-.93,3.71-6.51,1.44-2.76,1.41-2.77.38-.76,1.71.93c-.79,1.46-1.17,2.46-1.12,2.99.01.27.18.54.49.8.74.64,2.55,1.74,5.42,3.3l4.73,2.57,2.4,1.27c2.49,1.35,4.04,2.16,4.65,2.43,1.35.57,2.55.81,3.61.72,1.06-.1,2.13-.55,3.19-1.35,1.06-.81,2.04-2.04,2.93-3.69,1.03-1.89,1.52-3.58,1.48-5.05-.04-1.48-.44-2.73-1.22-3.77-.78-1.04-2.61-2.34-5.51-3.91l-4.16-2.26c-3.59-1.94-5.78-3.13-6.57-3.56-1.74-.89-2.82-1.35-3.26-1.4-.27-.02-.52.05-.74.2-.48.33-1.14,1.23-2,2.72l-1.71-.93c1.41-2.38,2.24-3.79,2.48-4.25.07-.12.16-.31.27-.55l2.3-4.53,1.71.93c-.68,1.25-1,2.1-.98,2.53.02.22.16.47.41.73s1.58,1.11,3.98,2.53c2.4,1.42,4.31,2.51,5.72,3.28l4.8,2.6c1.23.66,2.44,1.44,3.66,2.32,1.21.88,2.14,1.84,2.77,2.88.64,1.03,1.07,2.24,1.29,3.62.22,1.38.16,2.84-.18,4.38-.34,1.54-.99,3.2-1.94,4.95-1.11,2.05-2.43,3.82-3.96,5.3-1.11,1.07-2.23,1.84-3.37,2.29-1.13.45-2.24.66-3.33.63-1.08-.03-2.05-.21-2.89-.55-.53-.2-1.86-.88-4.01-2.05l-3.91-2.15-5.19-2.81c-1.91-1.03-3.64-1.93-5.2-2.7-.62-.28-1.1-.43-1.44-.46-.19-.01-.46.07-.81.23l-1.75,2.54Z"/>
    <path class="cls-1" d="M110.03,156.95c1.11-1.44,1.72-2.29,1.83-2.54.06-.17.08-.34.05-.52-.03-.18-.19-.44-.46-.78-.39-.45-1.4-1.46-3.04-3.02-.94-.88-2.19-1.99-3.76-3.32l-5.67-4.83-5.21-4.3c-.87-.72-1.46-1.16-1.77-1.33-.31-.16-.57-.24-.79-.23-.22,0-.47.11-.76.31-.29.2-1.01.88-2.15,2.05l-1.48-1.26c1.34-1.42,2.32-2.47,2.91-3.18l2.11-2.6,1.31-1.66c5.23.29,11.39.49,18.46.58,5.09.07,9.18.01,12.26-.18l-4.09-3.49c-6.36-5.41-10.15-8.53-11.39-9.35-.48-.32-.85-.46-1.12-.41-.44.09-1.34.9-2.69,2.44l-1.48-1.26c1.3-1.36,2.46-2.64,3.47-3.83.99-1.16,2.23-2.69,3.71-4.59l1.48,1.26c-1.18,1.46-1.8,2.39-1.85,2.82-.02.14.01.28.1.42.44.68,1.69,1.94,3.75,3.79,2.06,1.85,3.59,3.2,4.59,4.05,7.84,6.69,12.67,10.66,14.48,11.93l-.04.37c-1,.86-2.01,1.74-3.02,2.65-7.49.16-18.46.07-32.92-.25l8.79,7.49c1.82,1.55,3.76,3.13,5.8,4.74,1.4,1.12,2.29,1.75,2.67,1.91.18.07.36.09.55.06.18-.04.41-.18.69-.43.74-.68,1.26-1.2,1.56-1.55.06-.07.15-.19.28-.37l1.48,1.26c-1.92,2.2-3.01,3.46-3.27,3.76-.97,1.14-2.24,2.71-3.82,4.72l-1.56-1.33Z"/>
    <path class="cls-1" d="M127.79,95.06l1.33,1.56c-1.17,1.06-1.85,1.71-2.03,1.96-.18.25-.29.45-.32.6-.03.16-.01.31.05.46.09.27.35.71.8,1.3.25.32.73.91,1.44,1.76,2.44,2.93,3.76,4.5,3.95,4.73l6.08,7.13,2.84,3.17c1.04,1.22,1.77,1.96,2.2,2.22.19.12.37.18.56.18.19,0,.42-.09.7-.24.28-.15,1-.7,2.17-1.65l1.33,1.56c-1.98,1.55-4.05,3.25-6.22,5.09-1.89,1.61-3.53,3.08-4.94,4.42l-1.33-1.56c1.21-1.11,1.9-1.77,2.06-1.97.21-.26.33-.47.35-.63.02-.16,0-.31-.07-.43-.08-.17-.51-.77-1.27-1.79-1.15-1.46-2.24-2.79-3.27-4l-6.3-7.4c-2-2.35-3.31-3.83-3.94-4.46-1.34-1.45-2.21-2.33-2.61-2.63-.17-.12-.32-.19-.47-.21-.14-.02-.34.03-.59.15-.25.12-1.03.7-2.33,1.73l-1.33-1.56c1.54-1.18,3.27-2.58,5.18-4.21,2.14-1.83,4.14-3.59,5.98-5.3Z"/>
    <path class="cls-1" d="M163.89,109.71c-2.82-2.08-5.5-4.06-8.06-5.92l-6.92-4.99c-5.43-3.91-8.7-6.22-9.83-6.92-1.13-.7-1.86-1.04-2.21-1.02-.52.03-1.41.41-2.65,1.14l-1.07-1.75c3.2-1.85,5.14-2.98,5.82-3.4l6.97-4.48,1.08,1.74c-1.09.69-1.85,1.25-2.28,1.68-.25.24-.39.46-.42.66-.03.19,0,.39.13.59.24.4,1.45,1.38,3.61,2.96,1.25.91,1.92,1.4,2.01,1.48.09.08.21.17.35.29l12.5,9.16-2.34-13.58c-.05-.32-.35-1.85-.91-4.6-.38-1.95-.68-3.23-.88-3.85-.07-.17-.16-.34-.25-.5-.14-.22-.28-.37-.42-.44-.14-.07-.29-.09-.44-.07-.12.02-.37.13-.77.34-.9.45-1.65.84-2.25,1.19l-1.07-1.74,5.07-2.94,4.16-2.75,1.08,1.74c-1.2.9-1.85,1.5-1.96,1.78-.18.49,0,2.45.54,5.86l.63,4.14,1.27,8c1.09,6.82,1.93,11.61,2.52,14.35l-3,1.85Z"/>
    <path class="cls-1" d="M182.53,98.95l-.45-1.17c.7-.74,1.25-1.43,1.62-2.07-.15-.64-.46-1.65-.92-3.03-.84-2.53-1.48-4.36-1.92-5.49l-3.77-9.76c-.14-.38-.72-1.77-1.73-4.19-.68-1.62-1.16-2.58-1.45-2.88-.13-.12-.28-.18-.45-.2-.45-.02-1.52.24-3.21.79l-.64-1.67,4.96-1.96c.99-.39,1.93-.75,2.83-1.1,1.96-.76,4.13-1.62,6.52-2.6l4.31-1.79c.52-.2,1.57-.57,3.17-1.13.14-.05.4-.1.76-.14l.26.22.79,3.28c.07.22.4,1.29.98,3.2l-1.67.65c-.69-1.7-1.16-2.72-1.41-3.07-.14-.18-.28-.29-.43-.34-.23-.06-.85.05-1.84.31-1.47.39-2.89.84-4.24,1.36-1.27.49-2.55,1.04-3.83,1.65.44,1.71,1.14,3.83,2.11,6.35l1.72,4.45c1.01-.28,2.03-.62,3.08-1.02.33-.13,1.5-.61,3.51-1.46.76-.31,1.19-.54,1.29-.67.1-.14.15-.33.13-.57-.04-.61-.29-1.57-.76-2.86l1.76-.68,1.74,4.8,1.93,4.71-1.76.68c-.63-1.68-1.14-2.67-1.52-2.97-.28-.22-.66-.28-1.14-.18-1.05.23-2.36.64-3.91,1.24-1.4.54-2.53,1.03-3.4,1.48l3.52,9.1c.39,1.02.76,1.88,1.11,2.58,1.19-.35,2.58-.83,4.16-1.44,1.54-.59,2.94-1.19,4.21-1.8,1.26-.6,2.01-1.06,2.24-1.36.08-.1.12-.26.13-.5-.01-.79-.25-2.2-.71-4.24l1.77-.68c.8,2.98,1.56,5.4,2.27,7.25l-.17.39c-.88.45-2.17,1.01-3.86,1.66l-3.49,1.26c-3.43,1.27-5.79,2.16-7.08,2.65-.35.13-2.72,1.11-7.13,2.92Z"/>
    <path class="cls-1" d="M202.15,59.11l-.36-1.86c.35-.07,1.56-.26,3.63-.6,1.01-.16,2.44-.42,4.29-.78,1.58-.31,2.93-.6,4.04-.88,1.85-.44,3.38-.77,4.6-1.01,2.36-.46,4.16-.63,5.4-.51,1.24.11,2.38.63,3.41,1.55,1.04.92,1.71,2.16,2.01,3.71.36,1.84.12,3.63-.72,5.35-.83,1.73-2.34,3.26-4.51,4.59.51.61,1.07,1.22,1.69,1.83.62.62.98.99,1.1,1.13.11.13.23.26.34.38l4.52,4.6c1.2,1.22,1.85,1.88,1.95,1.97,1.42,1.29,2.29,2.05,2.6,2.27.31.22.59.36.85.42.26.06.75.03,1.46-.09l.39,2.01c-2.35.35-4.04.62-5.08.82-1.21.23-2.4.52-3.57.85-.14-.32-.4-.72-.79-1.2l-6.39-7.13c-1.83-2.05-3.36-3.64-4.58-4.78-.61-.57-1.17-.99-1.69-1.24l.1-.8c1.81-.29,3.13-.74,3.97-1.35.83-.61,1.45-1.54,1.87-2.78.41-1.24.49-2.56.22-3.94-.27-1.4-.83-2.5-1.67-3.3-.84-.8-1.79-1.29-2.84-1.47-.68-.11-1.83,0-3.45.31-.72.14-1.43.34-2.11.6.06.56.26,1.79.59,3.71.75,4.33,1.26,7.22,1.55,8.67.44,2.28.93,4.7,1.48,7.25.67,3.13,1.06,4.9,1.17,5.32.21.84.4,1.38.57,1.62.08.11.2.2.36.27.15.07.39.11.7.11.31,0,1.2-.12,2.65-.37l.39,2.01c-2.6.4-5.21.85-7.84,1.36-2.34.45-4.49.92-6.47,1.41l-.39-2.01c1.71-.39,2.71-.68,3.01-.84.17-.08.29-.18.35-.31.06-.12.09-.35.07-.68,0-.62-.11-1.53-.3-2.74l-1.19-6.69-1.64-8.48-1.04-4.8c-.4-1.9-.71-3.02-.93-3.38-.11-.15-.24-.26-.41-.33-.39-.11-1.51-.05-3.36.18Z"/>
    <path class="cls-1" d="M262.17,58.96l-1.95.03c-.06-1.8-.16-3.07-.29-3.81-.48-.67-1.32-1.26-2.5-1.77-1.18-.51-2.5-.75-3.95-.73-2.08.03-3.69.59-4.81,1.67-1.13,1.08-1.68,2.34-1.65,3.76.03,1.03.21,1.85.55,2.48.33.63.8,1.13,1.4,1.49.6.36,1.49.69,2.66.98.89.17,2.13.39,3.72.64,1.59.25,2.62.43,3.1.53,1.25.31,2.26.68,3.03,1.13.77.45,1.39.96,1.85,1.55.46.59.84,1.34,1.15,2.24.31.9.47,1.92.49,3.05.03,1.99-.35,3.74-1.14,5.25-.6,1.14-1.43,2.19-2.51,3.15-1.08.95-2.19,1.68-3.33,2.16-1.83.77-4.04,1.18-6.62,1.22-1.89.03-3.58-.12-5.06-.45-1.48-.33-3.11-.92-4.9-1.75.45-1.77.65-4.45.61-8.05l1.94-.03c-.01,1.12.09,2.5.32,4.15.6.95,1.61,1.78,3.03,2.48,1.42.7,2.97,1.04,4.64,1.02,1.46-.02,2.75-.3,3.89-.84,1.14-.54,1.95-1.27,2.45-2.19.5-.92.74-1.97.72-3.13-.01-.98-.21-1.81-.58-2.51-.37-.69-.94-1.24-1.72-1.65-.77-.41-2.13-.82-4.07-1.24-2.78-.55-4.62-.94-5.49-1.19-1.33-.38-2.4-.95-3.21-1.69-.82-.75-1.43-1.66-1.85-2.73-.42-1.07-.63-2.23-.65-3.47-.03-1.74.31-3.34,1.01-4.82.7-1.48,1.63-2.63,2.81-3.45,1.17-.82,2.5-1.42,3.99-1.8,1.48-.37,3.01-.57,4.58-.6,1.63-.03,3.21.1,4.75.37,1.53.27,2.87.67,4,1.21l.19.55c-.2,1.01-.34,2-.42,2.96-.08.97-.14,2.24-.16,3.82Z"/>
    <path class="cls-1" d="M288.1,52.96l-.24,2.04c-1.58-.14-2.51-.19-2.82-.16-.3.03-.52.09-.66.18s-.24.2-.3.35c-.14.25-.28.74-.41,1.47-.07.4-.17,1.15-.31,2.26-.49,3.78-.75,5.82-.78,6.11l-1.1,9.31-.4,4.24c-.19,1.59-.23,2.63-.14,3.12.04.22.12.4.25.53.13.13.35.25.65.36.3.11,1.2.26,2.68.47l-.24,2.04c-2.48-.4-5.13-.77-7.96-1.1-2.46-.29-4.66-.5-6.6-.62l.24-2.04c1.64.13,2.59.19,2.85.17.34-.02.57-.08.7-.17.13-.09.22-.21.27-.34.07-.18.22-.9.45-2.15.29-1.84.53-3.54.71-5.11l1.14-9.65c.36-3.06.56-5.04.6-5.92.15-1.96.21-3.2.16-3.7-.02-.21-.08-.37-.16-.49-.09-.12-.26-.23-.52-.33-.26-.1-1.21-.28-2.86-.54l.24-2.04c1.92.33,4.12.65,6.61.94,2.8.33,5.45.59,7.95.78Z"/>
    <path class="cls-1" d="M293.53,87.06l.49-1.83c1.81.42,2.9.58,3.28.49.38-.09.69-.33.92-.72.34-.6.93-2.52,1.79-5.76l3.57-13.47c.98-3.67,1.49-5.74,1.53-6.19l-3.17-.84c-1.6-.42-3.02-.75-4.26-.96-.5-.09-.8-.1-.89-.05-.12.06-.28.3-.47.71-.47.99-.89,2.13-1.26,3.42l-1.83-.49c.76-3.07,1.18-4.8,1.27-5.2.13-.67.25-1.39.36-2.18l.26-.17c.68.23,1.41.47,2.19.69,1.26.37,3.71,1.03,7.33,2l8.97,2.38c3.73.99,6.23,1.64,7.49,1.94.69.16,1.38.31,2.09.44l.16.28c-.37.88-.65,1.66-.86,2.33-.05.12-.51,1.74-1.38,4.88l-1.83-.49c.28-1.17.48-2.3.59-3.4.05-.56.04-.91-.04-1.04-.07-.1-.29-.21-.67-.35-1.19-.44-2.63-.89-4.35-1.35l-3.19-.85c-.18.51-.75,2.56-1.7,6.15l-3.57,13.47c-.86,3.24-1.29,5.21-1.3,5.92,0,.42.15.77.44,1.04.3.28,1.33.68,3.09,1.22l-.49,1.83c-2.85-.87-5.27-1.56-7.25-2.09-2.11-.56-4.55-1.15-7.33-1.78Z"/>
    <path class="cls-1" d="M339.36,85.03l4.61-3.05c.8-.56,3.2-2.28,7.21-5.17,1.39-.98,2.27-1.63,2.65-1.95l3.37,1.57-.44.95c-2.77,1.49-5.86,3.32-9.26,5.49-3.41,2.17-5.55,3.59-6.43,4.25-.59.46-1.04.89-1.35,1.29-.22.29-.49.81-.83,1.54l-1.66,3.57c-.83,1.79-1.4,3.11-1.69,3.97-.29.86-.41,1.4-.37,1.63.05.23.2.45.45.67.26.22,1.15.71,2.69,1.46l-.87,1.86c-2.6-1.33-4.97-2.49-7.1-3.49-2.08-.97-4.21-1.91-6.38-2.81l.87-1.86c1.61.68,2.57,1.06,2.88,1.11.3.06.54.04.71-.05.17-.09.44-.48.81-1.16.81-1.58,1.48-2.93,2-4.05l1.87-4.01c.15-.32.2-1.12.14-2.38-.18-3.04-.48-6.08-.88-9.13-.32-2.48-.74-4.55-1.25-6.19-.34-1.09-.63-1.78-.85-2.07-.14-.17-.74-.5-1.79-.99l.74-1.57,4.84,1.2c.83.19,1.69.36,2.58.53.63.88,1.05,1.59,1.27,2.15.22.55.43,1.5.63,2.85.31,1.99.51,4.21.58,6.66.16,3.9.25,6.29.24,7.17Z"/>
    <path class="cls-1" d="M365.6,101.12c1.83-2.17,3.76-3.77,5.77-4.83,2.02-1.06,4.1-1.64,6.27-1.73,2.16-.1,4.16.2,6.01.91,2.35.91,4.61,2.28,6.75,4.1,2.14,1.81,3.82,3.75,5.05,5.83.9,1.56,1.49,3.19,1.74,4.9.26,1.71.26,3.24,0,4.59-.25,1.35-.71,2.68-1.36,3.99-.66,1.31-1.54,2.62-2.65,3.94-1.88,2.22-4.01,3.97-6.39,5.23-1.77.94-3.66,1.5-5.68,1.69-2.02.18-3.97-.02-5.86-.6-2.58-.82-5.09-2.26-7.53-4.33-2.64-2.24-4.51-4.64-5.59-7.21-1.08-2.57-1.37-5.26-.85-8.05.51-2.8,1.95-5.6,4.32-8.4ZM371.91,104.65c-2.34,2.76-3.89,5.36-4.67,7.81-.78,2.44-.89,4.54-.34,6.28.55,1.74,1.62,3.29,3.22,4.65,1.48,1.25,3.11,2.02,4.88,2.31,1.77.28,3.71-.14,5.81-1.28,2.1-1.13,4.17-2.9,6.22-5.32,1.4-1.66,2.5-3.32,3.31-5,.8-1.68,1.28-3.28,1.42-4.82.14-1.53-.02-2.94-.51-4.22-.48-1.28-1.47-2.56-2.98-3.83-1.72-1.46-3.52-2.29-5.42-2.5-1.9-.21-3.79.25-5.68,1.37-1.89,1.12-3.65,2.64-5.27,4.56Z"/>
    <path class="cls-1" d="M405.51,147.14l-1.3-1.58c1.47-1.27,2.29-2.11,2.47-2.53.09-.21.03-.52-.18-.92-.56-1-1.61-2.43-3.15-4.31-.22-.27-.61-.73-1.18-1.39l-1.99,1.64c-2.84,2.33-4.8,4-5.89,5.01-1.09,1.01-1.68,1.65-1.77,1.92-.07.19-.05.42.05.7.1.28.76,1.29,2,3.03l-1.42,1.17-5.64-7.11c-.83-1.02-2.19-2.58-4.08-4.71l1.5-1.24c1.16,1.36,1.87,2.11,2.13,2.25.12.08.26.12.42.11.23,0,.61-.18,1.14-.52.31-.19,1.21-.86,2.71-2,1.5-1.14,2.57-1.97,3.2-2.5l7.44-6.11c.17-.14,1.8-1.57,4.9-4.3.9-.78,1.5-1.38,1.8-1.81.1-.14.15-.28.16-.41,0-.13-.07-.35-.22-.65s-.66-1.06-1.53-2.26l1.5-1.23,5.07,6.42,7.2,8.43c.99,1.2,1.86,2.38,2.61,3.54l-.12.37c-.79.43-1.75,1.04-2.88,1.81-1.13.77-2.1,1.48-2.89,2.12l-1.2-1.46c.29-.24.91-.8,1.87-1.68.51-.46.79-.75.86-.89.05-.11.07-.21.05-.31-.03-.33-.3-.94-.79-1.82-.5-.89-1.17-1.85-2.02-2.88-.16-.2-.64-.75-1.42-1.63-.78-.89-1.32-1.49-1.61-1.8-1.31.85-3.52,2.55-6.63,5.11l-2.51,2.06c1.15,1.57,1.95,2.62,2.38,3.15,1.25,1.52,2.12,2.42,2.59,2.71.17.11.4.11.69,0,.38-.14,1.12-.64,2.21-1.49l1.3,1.58c-2.04,1.67-4.64,3.81-7.8,6.41Z"/>
    <path class="cls-1" d="M433.89,154.3l1.75-.84,3.09,6.82,1.39,2.79,1.42,2.77.39.76-1.75.84c-.72-1.5-1.3-2.39-1.76-2.66-.23-.15-.54-.17-.93-.07-.96.22-2.91,1.04-5.85,2.45l-4.86,2.33-2.44,1.19c-2.56,1.22-4.12,2-4.7,2.34-1.25.76-2.15,1.59-2.7,2.5-.55.91-.81,2.04-.78,3.37.03,1.34.45,2.85,1.26,4.54.93,1.95,2,3.33,3.21,4.17,1.22.83,2.47,1.25,3.77,1.23,1.29-.02,3.43-.74,6.4-2.16l4.27-2.04c3.69-1.76,5.93-2.84,6.74-3.22,1.74-.88,2.75-1.49,3.05-1.82.17-.2.27-.44.27-.72.02-.57-.32-1.65-1.03-3.22l1.75-.84c1.1,2.54,1.76,4.04,1.98,4.51.06.12.15.31.29.55l2.31,4.52-1.75.84c-.61-1.28-1.1-2.04-1.47-2.28-.19-.11-.47-.14-.83-.1-.36.05-1.83.62-4.39,1.73s-4.57,2.01-6.02,2.7l-4.92,2.36c-1.26.6-2.6,1.13-4.03,1.59-1.43.46-2.75.64-3.96.55-1.21-.09-2.44-.45-3.69-1.08-1.25-.63-2.39-1.54-3.44-2.72-1.04-1.19-2-2.68-2.86-4.48-1.01-2.11-1.66-4.21-1.96-6.32-.22-1.53-.17-2.89.13-4.07.3-1.18.78-2.2,1.44-3.07.66-.86,1.37-1.53,2.14-2.02.47-.31,1.81-.99,4.01-2.05l4.03-1.9,5.32-2.55c1.95-.93,3.7-1.81,5.24-2.62.59-.34,1-.64,1.22-.9.12-.14.22-.41.29-.79l-1.03-2.91Z"/>
    <path class="cls-1" d="M423.21,206.88l1.83-.48c.53,1.77.93,2.81,1.2,3.09.27.29.63.44,1.08.45.69,0,2.65-.44,5.89-1.29l13.48-3.55c3.68-.97,5.72-1.54,6.14-1.73l-.84-3.18c-.42-1.6-.84-2.99-1.27-4.18-.17-.48-.31-.74-.4-.79-.12-.08-.4-.1-.85-.06-1.09.08-2.29.28-3.59.59l-.48-1.83c3.04-.86,4.76-1.35,5.14-1.47.64-.21,1.33-.47,2.07-.76l.28.14c.13.71.29,1.46.48,2.25.31,1.28.94,3.74,1.89,7.37l2.36,8.97c.98,3.73,1.66,6.22,2.02,7.47.2.68.42,1.36.65,2.04l-.17.28c-.94.12-1.76.25-2.45.41-.12.02-1.77.42-4.93,1.21l-.48-1.83c1.15-.34,2.24-.72,3.25-1.17.51-.23.81-.41.89-.54.05-.11.04-.36-.03-.76-.2-1.25-.53-2.73-.98-4.44l-.84-3.19c-.54.09-2.6.61-6.18,1.56l-13.48,3.55c-3.24.85-5.17,1.45-5.78,1.8-.36.21-.6.51-.69.9s.06,1.49.47,3.29l-1.83.48c-.66-2.91-1.25-5.36-1.77-7.34-.56-2.11-1.25-4.53-2.07-7.25Z"/>
    <path class="cls-1" d="M428.55,225.46l1.94-.18c.21,1.23.36,1.96.45,2.19.09.23.22.42.38.58.16.16.41.31.74.45.34.15,1.56.56,3.67,1.25.99.31,2.95.9,5.87,1.77l15.44,4.61,5.43,1.53.3,3.24-23.16,12.54-3.03,1.72-2.04,1.12c-.26.18-.45.34-.56.49-.11.15-.19.32-.24.5-.04.18-.06.64-.03,1.36-.01.24-.02.57-.02,1.03l-1.94.18-.44-6.4-.91-8.05,1.94-.18c.25,1.85.45,2.88.6,3.1.15.23.38.32.69.3.38-.04.99-.27,1.83-.7l4.87-2.44-1.11-11.88-2.85-.75c-2.18-.56-3.54-.82-4.06-.78-.37.04-.62.18-.75.44-.18.38-.22,1.49-.11,3.32l-1.94.18-.34-5.31-.65-5.24ZM442.06,234.43c.06,1.45.18,3.08.35,4.9.16,1.76.35,3.33.55,4.72l11.46-6.03-12.35-3.59Z"/>
    <path class="cls-1" d="M431.82,261.63l2.04.23c-.13,1.46-.19,2.35-.16,2.67.03.33.09.57.18.74.1.17.26.29.46.38.44.2,1.5.41,3.18.61l4.59.61,10.82,1.23,4.56.43c1.71.18,2.81.22,3.29.12.22-.04.4-.12.53-.25.13-.13.25-.35.35-.67.1-.32.26-1.2.46-2.66l2.04.23c-.39,2.5-.74,5.13-1.06,7.92-.28,2.49-.48,4.71-.59,6.65l-2.04-.23c.12-1.66.17-2.63.13-2.93-.03-.3-.12-.52-.26-.66-.14-.14-.66-.29-1.58-.46-1.55-.32-3.79-.64-6.73-.98l-2.65-.3c-.23,1.09-.55,3.4-.95,6.94-.51,4.45-.76,7.2-.78,8.26l2.64.3c2.38.27,3.9.43,4.58.48,2.05.12,3.21.16,3.48.13.19-.03.34-.08.45-.17.11-.09.22-.27.32-.54.1-.26.28-1.24.53-2.91l2.04.23c-.32,1.92-.63,4.12-.91,6.61-.32,2.79-.57,5.44-.75,7.96l-2.04-.23c.13-1.46.19-2.35.16-2.67-.03-.33-.09-.57-.19-.74-.1-.16-.25-.29-.46-.38-.46-.21-1.52-.41-3.18-.61l-4.61-.61-10.81-1.23-4.54-.43c-1.73-.18-2.82-.23-3.28-.14-.23.05-.41.14-.55.27-.14.13-.26.35-.35.67-.1.32-.24,1.2-.44,2.66l-2.04-.23c.39-2.5.74-5.14,1.06-7.92.28-2.49.48-4.71.59-6.65l2.04.23c-.13,1.7-.18,2.7-.14,3.01.03.31.12.54.26.68.14.14.67.3,1.58.47,1.57.25,3.83.54,6.79.88l4.84.55c.19-.76.5-2.99.92-6.69.4-3.54.66-5.91.76-7.1.04-.48.05-.95.05-1.42l-4.84-.55c-2.4-.27-3.94-.41-4.61-.42-2.07-.11-3.24-.15-3.52-.12-.17.03-.32.08-.43.17-.11.09-.22.26-.32.52-.1.26-.28,1.21-.53,2.85l-2.04-.23c.32-1.92.63-4.12.91-6.61.32-2.78.56-5.44.74-7.96Z"/>
  </g>
  <polygon class="cls-1" points="85.02 362.55 88.52 358.16 85.64 353.33 90.86 355.32 94.53 351.09 94.28 356.7 99.42 358.91 94.03 360.39 93.54 365.99 90.47 361.3 85.02 362.55"/>
  <polygon class="cls-1" points="97.5 380.6 100.57 375.9 97.25 371.37 102.65 372.86 105.91 368.29 106.17 373.92 111.5 375.63 106.27 377.61 106.31 383.24 102.81 378.83 97.5 380.6"/>
  <polygon class="cls-1" points="111.6 397.41 114.22 392.45 110.5 388.24 116 389.22 118.82 384.37 119.6 389.94 125.07 391.15 120.04 393.62 120.6 399.22 116.71 395.17 111.6 397.41"/>
  <path class="cls-1" d="M149.96,422.53c3-4.17-15.41-11.26-15.41-11.26,0,0,12.42,15.44,15.41,11.26Z"/>
  <path class="cls-1" d="M71.03,319.15c4.78-1.85,6.84,17.88,6.84,17.88,0,0-11.61-16.05-6.84-17.88Z"/>
  <polygon class="cls-1" points="425.06 362.54 421.57 358.15 424.45 353.33 419.23 355.32 415.55 351.08 415.81 356.7 410.67 358.91 416.05 360.39 416.55 365.99 419.62 361.29 425.06 362.54"/>
  <polygon class="cls-1" points="412.58 380.6 409.51 375.9 412.82 371.37 407.44 372.86 404.19 368.29 403.93 373.91 398.6 375.62 403.81 377.6 403.78 383.24 407.28 378.83 412.58 380.6"/>
  <polygon class="cls-1" points="398.48 397.41 395.88 392.45 399.6 388.24 394.08 389.21 391.26 384.37 390.48 389.94 385.02 391.15 390.05 393.61 389.48 399.21 393.37 395.16 398.48 397.41"/>
  <path class="cls-1" d="M360.13,422.53c-3-4.18,15.43-11.27,15.43-11.27,0,0-12.42,15.45-15.43,11.27Z"/>
  <path class="cls-1" d="M439.05,319.14c-4.77-1.85-6.83,17.89-6.83,17.89,0,0,11.61-16.05,6.83-17.89Z"/>
  <g>
    <path class="cls-1" d="M180.53,452.43l.6-1.8,4.31.95c.46.09.82.07,1.1-.07.27-.13.56-.48.86-1.04.58-1.08,1.53-3.59,2.85-7.55l1.76-5.29c.61-1.82,1.24-3.79,1.92-5.92l.58-1.91c.16-.47.21-.79.17-.95-.05-.16-.14-.27-.27-.31-.09-.03-.46-.01-1.11.05-3.33.3-5.46.52-6.39.67l-.22-.25c.04-.31.12-.81.25-1.48.09-.51.15-.99.2-1.43l.07-.14c2.89.11,5.21.16,6.94.16,1.73,0,4.45-.07,8.17-.21l.37.49c-.08.23-.35.91-.82,2.03-.47,1.12-.76,1.84-.87,2.16-.47,1.26-1.62,4.52-3.45,9.75l-1.09,3.27c-1.06,3.19-1.78,5.41-2.16,6.66-.58,1.9-.86,3.03-.82,3.4.02.22.12.42.3.59.29.31,1.3.8,3.04,1.46.49.18.96.38,1.39.61l-.6,1.8c-3.15-1.16-5.71-2.07-7.69-2.73-1.35-.45-4.47-1.44-9.37-2.95Z"/>
    <path class="cls-1" d="M231.64,449.43c-1.17-.87-2-1.63-2.51-2.29-.51-.66-.89-1.47-1.13-2.42-.24-.96-.3-1.98-.17-3.08.2-1.77.83-3.29,1.87-4.53,1.04-1.25,2.31-2.14,3.8-2.68,1.49-.54,3.29-.69,5.4-.44,2.57.3,4.49,1.18,5.76,2.65,1.27,1.47,1.79,3.16,1.57,5.05-.12,1.02-.43,1.94-.93,2.75-.51.82-1.17,1.54-1.99,2.16-.46.35-1.21.78-2.25,1.28,1.25.71,2.18,1.37,2.81,1.97.62.61,1.1,1.26,1.43,1.94.33.69.54,1.43.65,2.23.1.8.1,1.65,0,2.54-.25,2.2-1.02,4.08-2.3,5.64-1.28,1.56-2.97,2.66-5.06,3.31-1.44.44-3.11.56-5.01.34-1.79-.21-3.24-.66-4.37-1.35-.79-.48-1.52-1.12-2.18-1.92-.67-.79-1.16-1.69-1.49-2.68-.33-.99-.42-2.15-.27-3.47.12-1.03.37-1.95.76-2.75.39-.8.89-1.48,1.5-2.04.61-.56,1.22-1,1.83-1.3.13-.06.89-.37,2.28-.93ZM233.53,450.56c-1.18.71-2.1,1.55-2.76,2.53-.66.98-1.06,2.09-1.2,3.32-.22,1.88.17,3.49,1.17,4.81,1,1.33,2.32,2.09,3.97,2.28,1.48.17,2.76-.2,3.85-1.1,1.09-.91,1.73-2.13,1.9-3.65.13-1.11.04-2.06-.26-2.83-.3-.78-.88-1.52-1.72-2.23-.85-.71-2.3-1.64-4.35-2.8l-.6-.33ZM238.85,446.79c.94-.49,1.71-1.16,2.31-2.02.6-.86.96-1.82,1.08-2.87.17-1.51-.14-2.77-.95-3.78-.81-1.01-1.97-1.6-3.5-1.78-1.32-.15-2.44.13-3.35.83-.91.71-1.43,1.67-1.57,2.87-.06.48-.03.94.06,1.37.1.43.28.87.54,1.3.26.44.6.84,1.01,1.22.41.38.94.77,1.6,1.19l1.57.98,1.19.68Z"/>
    <path class="cls-1" d="M273,453.57l-.95-.39c0-.82-.05-1.99-.18-3.51l-.27-3.71-.32-3.03-.37-2.53c-.14-1.14-.22-1.81-.26-2.03-.06-.4-.12-.79-.2-1.17-.07-.38-.17-.81-.29-1.3l.28-.26c3.74-.29,6.95-.58,9.66-.87,1.03-.11,1.85-.2,2.45-.28l4.37-.61.25.35c0,1.71.04,2.81.09,3.31.04.4.12.93.24,1.57l-.2.33c-.61.03-1.29.08-2.05.14-2.49.21-4.09.35-4.8.43-3.27.35-5.55.64-6.84.89l.67,7.33c1.23-.76,2.28-1.29,3.16-1.6.87-.31,1.83-.53,2.89-.64,2.83-.3,5.13.25,6.92,1.64,1.79,1.4,2.82,3.38,3.09,5.96.22,2.05-.16,4.1-1.12,6.16-.97,2.05-2.6,3.81-4.9,5.27-1.74,1.11-3.82,1.79-6.25,2.05-1.03.11-1.91.13-2.63.07-.72-.06-1.65-.25-2.79-.57-.17-.67-.36-1.34-.59-2.01-.23-.67-.79-2.16-1.68-4.48l1.46-.69c.65,1.12,1.36,2.03,2.12,2.74.77.71,1.68,1.24,2.75,1.59,1.06.35,2.13.48,3.19.36,1.69-.18,3.02-.9,3.99-2.17.97-1.27,1.35-2.9,1.14-4.89-.22-2.07-.95-3.62-2.19-4.66-1.24-1.04-2.82-1.46-4.73-1.25-.77.08-1.44.23-2.02.46-.58.22-1.07.47-1.46.73-.22.13-.75.56-1.58,1.27Z"/>
    <path class="cls-1" d="M313.89,444.21c-1.01-2.5-1.76-4.85-2.24-7.06-.31-1.43-.39-2.83-.25-4.19.15-1.36.47-2.55.96-3.57.49-1.02,1.17-1.92,2.05-2.71.87-.79,1.9-1.43,3.08-1.9,2.37-.96,4.42-1.2,6.16-.71,1.74.49,3.29,1.56,4.64,3.21,1.35,1.65,2.71,4.15,4.07,7.51.96,2.37,1.68,4.48,2.17,6.35.48,1.87.67,3.56.56,5.07-.1,1.51-.39,2.8-.87,3.86-.47,1.06-1.12,1.98-1.94,2.76-.82.78-1.93,1.44-3.3,2-1.64.67-3.19.93-4.66.8-1.48-.13-2.84-.65-4.1-1.56-1.26-.91-2.4-2.21-3.42-3.91-1.02-1.7-1.98-3.69-2.91-5.95ZM317.94,439.08c1.31,3.23,2.65,6.08,4.04,8.54,1.38,2.47,2.61,3.98,3.67,4.53,1.06.56,2.07.64,3.01.26,1.16-.47,1.87-1.45,2.15-2.95.27-1.5-.52-4.54-2.39-9.14-1.22-3-2.62-5.91-4.2-8.73-.85-1.51-1.61-2.6-2.28-3.25-.67-.66-1.35-1.06-2.02-1.23-.67-.16-1.35-.11-2.04.17-.78.31-1.36.82-1.75,1.53-.39.7-.53,1.67-.39,2.9.17,1.74.91,4.19,2.19,7.37Z"/>
  </g>
  <path class="cls-1" d="M163.85,226.88l2.21,2.66s4.11-9.07,11.14-14.12c0,0-9.01,5.32-13.35,11.46Z"/>
  <path class="cls-1" d="M166.38,229.95l2.21,2.67s4.11-9.07,11.14-14.11c0,0-9.01,5.31-13.35,11.45Z"/>
  <path class="cls-1" d="M168.91,233.02l2.2,2.65s4.12-9.07,11.14-14.11c0,0-9.03,5.32-13.34,11.46Z"/>
  <path class="cls-1" d="M171.43,236.08l2.21,2.65s4.11-9.05,11.14-14.11c0,0-9.03,5.32-13.36,11.46Z"/>
  <path class="cls-1" d="M173.97,239.15l2.21,2.66s4.11-9.07,11.14-14.12c0,0-9.02,5.33-13.35,11.46Z"/>
  <path class="cls-1" d="M176.49,242.21l2.2,2.67s4.11-9.07,11.14-14.12c0,0-9.02,5.32-13.34,11.45Z"/>
  <path class="cls-1" d="M179.01,245.28l2.21,2.66s4.11-9.07,11.13-14.11c0,0-9.01,5.32-13.34,11.45Z"/>
  <path class="cls-1" d="M181.54,248.35l2.47,3.49c-.6-1.77,3.84-9.9,10.88-14.95,0,0-9.02,5.32-13.35,11.46Z"/>
  <path class="cls-1" d="M166.25,233.64s3.42,4.3-2.26,12.98c0,0,4.6-1.72,7.12-8.57l-4.86-4.42Z"/>
  <path class="cls-1" d="M170.88,237.52s-1.13,8.42-4.73,11.91c0,0,4.59-1.72,7.12-8.57l-2.39-3.33Z"/>
  <path class="cls-1" d="M173.05,240.31s-1.14,8.42-4.74,11.91c0,0,4.6-1.72,7.13-8.57l-2.38-3.34Z"/>
  <path class="cls-1" d="M175.21,243.1s-1.12,8.42-4.73,11.91c0,0,4.6-1.72,7.12-8.57l-2.39-3.34Z"/>
  <path class="cls-1" d="M177.38,245.9s-1.68,9.23-5.28,12.72c0,0,5.14-2.53,7.66-9.38l-2.38-3.34Z"/>
  <path class="cls-1" d="M179.54,248.69s-1.85,10.13-5.46,13.62c0,0,5.32-3.42,7.85-10.28l-2.39-3.34Z"/>
  <path class="cls-1" d="M181.71,251.49s.53,8.02-7.08,16.42c0,0,8.64-5.41,9.46-13.08l-2.38-3.34Z"/>
  <path class="cls-1" d="M351.66,226.88l-2.21,2.66s-4.11-9.07-11.14-14.12c0,0,9.01,5.32,13.35,11.46Z"/>
  <path class="cls-1" d="M349.13,229.95l-2.21,2.67s-4.09-9.07-11.12-14.11c0,0,9,5.31,13.34,11.45Z"/>
  <path class="cls-1" d="M346.6,233.02l-2.21,2.65s-4.1-9.07-11.13-14.11c0,0,9.01,5.32,13.34,11.46Z"/>
  <path class="cls-1" d="M344.08,236.08l-2.22,2.65s-4.1-9.05-11.14-14.11c0,0,9.03,5.32,13.36,11.46Z"/>
  <path class="cls-1" d="M341.55,239.15l-2.22,2.66s-4.09-9.07-11.12-14.12c0,0,9.02,5.33,13.34,11.46Z"/>
  <path class="cls-1" d="M339.03,242.21l-2.21,2.67s-4.11-9.07-11.14-14.12c0,0,9.01,5.32,13.35,11.45Z"/>
  <path class="cls-1" d="M336.5,245.28l-2.21,2.66s-4.11-9.07-11.14-14.11c0,0,9.01,5.32,13.35,11.45Z"/>
  <path class="cls-1" d="M333.97,248.35l-2.2,2.66s-4.11-9.07-11.14-14.12c0,0,9.02,5.32,13.34,11.46Z"/>
  <path class="cls-1" d="M348.55,233.78s-3.25,5.94,2.99,12.84c0,0-4.6-1.72-7.14-8.57l4.15-4.27Z"/>
  <path class="cls-1" d="M344.64,237.52s1.12,8.42,4.73,11.91c0,0-4.6-1.72-7.14-8.57l2.4-3.33Z"/>
  <path class="cls-1" d="M342.47,240.31s1.12,8.42,4.73,11.91c0,0-4.59-1.72-7.13-8.57l2.4-3.34Z"/>
  <path class="cls-1" d="M340.3,243.1s1.12,8.42,4.73,11.91c0,0-4.6-1.72-7.14-8.57l2.4-3.34Z"/>
  <path class="cls-1" d="M338.13,245.9s1.68,9.23,5.28,12.72c0,0-5.14-2.53-7.67-9.38l2.39-3.34Z"/>
  <path class="cls-1" d="M335.99,248.69s1.83,10.13,5.44,13.62c0,0-5.33-3.42-7.85-10.28l2.4-3.34Z"/>
  <path class="cls-1" d="M333.81,251.49s.37,10.04,6.37,16.6c0,0-8.54-5.61-8.76-13.27l2.39-3.34Z"/>
  <g>
    <path class="cls-1" d="M204.05,213.11l-.83.51c-.5-.78-.85-1.22-1.04-1.32-.1-.06-.24-.05-.45.03-.51.2-1.27.61-2.27,1.23-.14.09-.39.24-.74.47l.65,1.05c.92,1.5,1.59,2.54,2,3.12.41.58.68.9.8.96.09.04.2.05.34.02.14-.03.67-.28,1.58-.76l.45.74-3.76,2.22c-.54.33-1.37.88-2.51,1.64l-.48-.78c.72-.46,1.12-.75,1.21-.86.05-.06.07-.12.08-.19,0-.11-.05-.3-.17-.57-.07-.16-.33-.63-.77-1.41-.44-.79-.77-1.34-.97-1.68l-2.41-3.92c-.05-.09-.63-.95-1.72-2.59-.31-.48-.56-.8-.74-.97-.06-.06-.12-.09-.19-.1-.06,0-.17.01-.32.07-.15.05-.55.24-1.17.58l-.48-.78,3.39-2,4.48-2.89c.64-.39,1.26-.73,1.86-1.02l.17.08c.15.4.37.9.67,1.49.29.59.56,1.09.81,1.51l-.78.48c-.09-.15-.32-.48-.68-.99-.18-.27-.3-.43-.36-.47-.05-.03-.09-.05-.14-.04-.16,0-.46.08-.92.26-.45.18-.95.44-1.5.78-.1.06-.39.25-.87.57-.47.32-.79.53-.96.65.31.67.97,1.82,1.97,3.46l.81,1.31c.83-.45,1.38-.76,1.67-.93.81-.5,1.3-.85,1.47-1.06.07-.08.08-.19.04-.33-.04-.19-.23-.57-.56-1.14l.83-.51c.66,1.07,1.5,2.43,2.52,4.09Z"/>
    <path class="cls-1" d="M208.78,216.63l-.26-.54c.3-.38.53-.73.69-1.05-.1-.3-.28-.77-.56-1.41-.5-1.17-.88-2.02-1.13-2.54l-2.19-4.49c-.09-.17-.42-.81-1-1.92-.39-.74-.66-1.18-.81-1.31-.07-.05-.14-.08-.22-.08-.22,0-.72.18-1.5.51l-.38-.78,2.3-1.15c.46-.23.9-.44,1.31-.65.91-.44,1.92-.95,3.02-1.51l2-1.03c.24-.12.73-.34,1.47-.67.07-.03.19-.07.36-.1l.13.1.51,1.53c.04.1.24.6.6,1.48l-.78.38c-.4-.78-.66-1.25-.8-1.4-.07-.08-.14-.12-.21-.14-.12-.02-.41.06-.88.23-.69.25-1.35.53-1.98.83-.59.29-1.18.6-1.78.95.27.8.69,1.78,1.26,2.94l1,2.05c.48-.17.96-.38,1.45-.62.15-.08.7-.36,1.64-.85.36-.18.56-.31.6-.38.04-.07.06-.16.04-.28-.04-.29-.2-.74-.48-1.33l.8-.39,1.03,2.22,1.12,2.17-.8.39c-.37-.78-.66-1.23-.85-1.36-.15-.1-.33-.11-.56-.04-.5.15-1.12.41-1.84.76-.65.32-1.18.61-1.58.86l2.05,4.2c.23.47.44.87.64,1.19.56-.21,1.2-.5,1.94-.86.71-.35,1.36-.69,1.94-1.04.58-.34.92-.59,1.02-.75.03-.05.05-.13.04-.24-.04-.37-.21-1.04-.51-2l.83-.4c.49,1.39.95,2.51,1.36,3.36l-.07.19c-.4.26-1,.57-1.78.96l-1.62.75c-1.59.75-2.69,1.27-3.29,1.56-.16.08-1.26.64-3.29,1.7Z"/>
    <path class="cls-1" d="M220.74,210.89l-.17-.49c.29-.35.52-.67.68-.98-.08-.35-.2-.79-.36-1.28-.33-1.03-.98-2.88-1.93-5.57-.25-.72-.66-1.84-1.22-3.35-.43-1.17-.7-1.83-.81-1.97-.07-.09-.15-.15-.24-.16-.18-.04-.74.07-1.67.34l-.31-.87c.15-.06.32-.11.49-.16l1.46-.46c.48-.16,1.07-.36,1.77-.61.7-.25,1.24-.45,1.63-.61.99-.4,1.63-.66,1.94-.77,1.15-.41,2.08-.6,2.79-.59.71.02,1.29.2,1.74.55.45.35.77.8.97,1.36.21.6.25,1.22.1,1.86-.15.63-.43,1.19-.84,1.66-.24.29-.85.76-1.8,1.43,1.32-.3,2.27-.41,2.86-.34.59.08,1.12.33,1.61.75.49.43.85.97,1.08,1.62.24.69.31,1.37.2,2.04-.11.67-.33,1.29-.68,1.86-.34.57-.79,1.08-1.33,1.54-.55.46-1.29.85-2.23,1.18l-3.54,1.17c-.57.2-1.29.49-2.19.86ZM221.65,200.89l.61-.21c.47-.17.9-.36,1.27-.58.38-.22.66-.47.84-.75.18-.28.29-.64.33-1.08.04-.44-.03-.91-.21-1.41-.18-.5-.43-.9-.75-1.18-.32-.28-.67-.44-1.03-.48-.37-.04-.87.06-1.5.28-.46.16-.86.34-1.21.52.15.52.33,1.1.56,1.76l.56,1.64.53,1.5ZM224.33,208.3c.25-.03.68-.16,1.31-.38.86-.31,1.45-.83,1.78-1.59.33-.76.3-1.67-.07-2.73-.27-.75-.62-1.31-1.07-1.69-.44-.37-.93-.57-1.45-.6-.53-.03-1.19.1-1.99.38-.29.1-.54.22-.78.36l1.68,4.75.46,1.23s.05.12.12.27Z"/>
    <path class="cls-1" d="M234.44,203.08c.46-.12.9-.06,1.31.18.41.24.67.59.79,1.06.12.46.06.9-.19,1.32-.24.41-.59.68-1.05.8-.47.12-.9.06-1.32-.18-.41-.24-.68-.6-.8-1.06-.12-.46-.06-.9.18-1.31.24-.41.6-.68,1.07-.8Z"/>
    <path class="cls-1" d="M242.81,204.38l-.14-1.14,1.79-2.28c.92-1.2,1.61-2.14,2.05-2.8.44-.66.77-1.26,1-1.8.22-.54.37-1.03.43-1.45.06-.42.07-.84.01-1.27-.1-.85-.4-1.47-.89-1.85-.49-.39-1.1-.54-1.84-.44-.42.05-.8.18-1.15.4-.35.21-.63.51-.86.87-.08.46-.16,1.06-.23,1.79l-.86.1-.02-2.54c0-.39-.01-.8-.02-1.23.42-.53.93-.94,1.53-1.25.6-.31,1.29-.51,2.06-.6,1.09-.13,1.99-.07,2.71.21.72.28,1.28.71,1.69,1.3.41.59.66,1.23.74,1.9.05.43.04.87-.03,1.3-.07.43-.24.91-.49,1.45-.25.54-.53,1.02-.82,1.44l-1.09,1.42-1.02,1.28c-.54.68-1.12,1.38-1.74,2.11l.05.14,1.94-.24c.29-.04,1.26-.18,2.91-.42.53-.08,1.17-.19,1.93-.34l.11.13c0,.66.04,1.17.08,1.54.03.24.1.54.22.91l-.04.13-3.27.31c-.74.07-1.27.12-1.59.16l-5.13.77Z"/>
    <path class="cls-1" d="M255.87,195.79c-.6-.34-1.04-.65-1.32-.94-.28-.28-.5-.64-.68-1.08-.17-.44-.26-.92-.26-1.45,0-.85.2-1.6.62-2.26.42-.65.97-1.15,1.64-1.5.67-.34,1.52-.52,2.53-.53,1.24,0,2.2.3,2.88.92.68.62,1.03,1.39,1.04,2.31,0,.49-.09.94-.28,1.36-.19.42-.47.8-.82,1.14-.2.19-.53.44-1,.74.63.26,1.11.52,1.45.77.33.25.59.53.79.84s.34.65.44,1.02c.1.37.15.78.15,1.21.01,1.06-.24,2-.76,2.81-.52.81-1.25,1.43-2.2,1.87-.66.3-1.44.45-2.35.45-.86,0-1.57-.12-2.15-.38-.4-.18-.78-.44-1.14-.78-.36-.34-.65-.73-.87-1.18-.21-.45-.32-1-.33-1.63,0-.5.06-.95.2-1.35.14-.4.34-.76.59-1.06.26-.3.52-.54.8-.72.06-.04.4-.23,1.03-.58ZM256.83,196.22c-.52.4-.92.86-1.17,1.36-.26.5-.38,1.05-.38,1.65,0,.91.29,1.64.84,2.21.55.57,1.23.85,2.02.84.71,0,1.3-.26,1.76-.75.46-.5.69-1.11.69-1.85,0-.53-.1-.98-.29-1.33-.19-.35-.5-.67-.95-.96-.44-.28-1.18-.64-2.22-1.07l-.3-.12ZM259.11,194.11c.42-.29.75-.65.98-1.09.23-.44.35-.92.35-1.43,0-.73-.23-1.3-.67-1.73-.44-.43-1.03-.64-1.76-.64-.64,0-1.15.2-1.54.59-.39.39-.58.87-.58,1.45,0,.23.04.44.11.64.07.2.18.4.33.59.15.19.33.36.55.52.22.15.49.31.83.47l.8.37.6.25Z"/>
    <path class="cls-1" d="M266.07,194.87c.4.03.9.08,1.48.14l.03-.38c-.36-.04-.58-.08-.64-.12-.07-.04-.11-.11-.12-.18-.02-.14-.01-.54.04-1.19l.21-2.73c.05-.73.09-1.15.11-1.25l.65.05c.35.03.65.06.9.1.08.01.13.03.14.04.02.02.03.09.04.2.02.22.02.45,0,.68l.38.03c.06-.64.09-.97.09-1,.02-.14.04-.3.09-.48l-.04-.05c-.14,0-.29,0-.43-.01-.26-.02-.77-.05-1.54-.11l-1.84-.14c-.75-.06-1.25-.1-1.51-.12-.16-.02-.31-.03-.46-.05l-.04.04c0,.16.01.3.01.44,0,.08-.02.43-.06,1.05l.38.03c.02-.26.07-.5.12-.71.02-.09.04-.14.07-.16.01-.01.07-.02.17-.02.25,0,.54.01.87.03l.65.05c0,.09-.01.51-.07,1.25l-.21,2.73c-.05.66-.1,1.05-.14,1.18-.03.09-.08.14-.15.17-.07.03-.29.04-.65.02l-.03.38c.56.02,1.06.05,1.49.09Z"/>
    <path class="cls-1" d="M269.27,195.13l.06-.4c.28.04.46.06.52.05.06,0,.11-.01.15-.03.03-.02.06-.05.08-.09.04-.09.09-.3.14-.62l.15-.9.32-2.12.11-.89c.05-.34.06-.55.04-.65,0-.04-.02-.08-.05-.1-.02-.03-.07-.05-.13-.08-.06-.02-.23-.06-.52-.11l.06-.4c.49.09,1.01.18,1.56.26.49.07.93.13,1.31.17l-.06.4c-.33-.04-.52-.05-.58-.05-.06,0-.1.02-.13.05-.03.03-.06.13-.1.31-.07.31-.15.75-.24,1.33l-.08.52c.22.05.67.13,1.37.23.88.13,1.43.21,1.64.22l.08-.52c.07-.47.11-.77.12-.9.03-.4.05-.63.04-.69,0-.04-.01-.07-.03-.09-.02-.02-.05-.04-.1-.07-.05-.02-.24-.06-.56-.12l.06-.4c.38.08.81.15,1.3.22.55.09,1.07.15,1.57.21l-.06.4c-.29-.04-.46-.06-.53-.05-.06,0-.11.01-.15.03-.03.02-.06.05-.08.09-.04.09-.09.3-.14.62l-.16.9-.32,2.12-.11.89c-.05.34-.06.56-.05.64,0,.05.02.08.05.11.02.03.07.05.13.08.06.02.23.06.52.11l-.06.4c-.49-.09-1.01-.18-1.56-.26-.49-.07-.93-.13-1.31-.17l.06-.4c.33.04.53.05.59.05.06,0,.1-.02.13-.05s.06-.13.1-.31c.06-.31.14-.75.23-1.33l.14-.95c-.15-.04-.59-.12-1.33-.23-.7-.1-1.17-.17-1.41-.2-.1-.01-.19-.02-.28-.03l-.14.95c-.07.47-.11.78-.11.91-.04.4-.05.64-.05.69,0,.03.01.06.03.09.02.02.05.05.1.07.05.02.24.06.56.12l-.06.4c-.38-.08-.81-.15-1.3-.22-.55-.08-1.07-.15-1.57-.21Z"/>
    <path class="cls-1" d="M281.49,206.03l.28-.85,2.07.44c.22.04.4.03.53-.03.13-.06.27-.23.41-.5.26-.52.7-1.73,1.32-3.62l.83-2.53c.29-.87.58-1.82.9-2.84l.27-.92c.07-.22.1-.37.08-.45-.02-.08-.07-.12-.13-.15-.04-.01-.22,0-.53.03-1.59.15-2.6.26-3.04.34l-.1-.12c.02-.15.06-.38.12-.71.04-.24.08-.47.1-.68l.03-.07c1.37.04,2.47.06,3.3.06.82,0,2.11-.05,3.88-.12l.18.23c-.03.11-.16.44-.38.97-.22.54-.35.88-.41,1.04-.22.6-.76,2.16-1.62,4.67l-.51,1.56c-.5,1.53-.83,2.59-.99,3.2-.27.91-.4,1.45-.38,1.63.01.11.06.2.14.28.14.15.62.37,1.44.68.23.08.45.18.66.28l-.28.85c-1.5-.55-2.73-.98-3.68-1.28-.65-.21-2.14-.67-4.48-1.38Z"/>
    <path class="cls-1" d="M295.87,203.46c-.4-.57-.66-1.04-.79-1.42-.13-.37-.18-.8-.15-1.27.04-.47.16-.94.38-1.42.35-.77.87-1.37,1.52-1.78.66-.41,1.37-.62,2.12-.65.76-.02,1.59.18,2.52.61,1.12.52,1.86,1.21,2.21,2.06.35.86.34,1.7-.04,2.53-.21.44-.49.81-.84,1.11-.35.29-.76.52-1.23.68-.26.09-.67.17-1.22.24.46.51.79.95.98,1.32.19.37.31.74.35,1.09.05.36.03.73-.04,1.11-.07.38-.2.76-.38,1.15-.45.96-1.08,1.7-1.89,2.21-.81.52-1.74.77-2.79.75-.72-.02-1.49-.21-2.32-.59-.78-.36-1.37-.78-1.78-1.26-.28-.34-.52-.73-.7-1.2-.18-.46-.27-.94-.28-1.44,0-.5.13-1.04.4-1.62.21-.45.46-.83.76-1.13.3-.31.63-.54.99-.7.36-.16.7-.27,1.03-.32.07,0,.46-.03,1.18-.08ZM296.55,204.26c-.65.14-1.2.38-1.65.73-.45.34-.8.79-1.05,1.32-.38.82-.44,1.61-.19,2.36.25.75.74,1.29,1.46,1.63.64.3,1.28.33,1.92.08.63-.25,1.1-.71,1.41-1.37.23-.48.33-.93.31-1.32-.02-.4-.17-.82-.45-1.27-.28-.45-.79-1.09-1.55-1.92l-.22-.24ZM299.51,203.33c.5-.08.96-.27,1.36-.57.4-.3.71-.68.92-1.14.31-.66.35-1.28.14-1.86-.22-.58-.66-1.02-1.32-1.33-.58-.27-1.13-.31-1.65-.12-.52.18-.9.54-1.14,1.06-.1.21-.15.42-.17.63-.02.21,0,.44.05.67s.14.47.28.7c.13.23.31.49.55.78l.57.68.44.49Z"/>
    <path class="cls-1" d="M304.09,208.62l-.25-.43c.24-.32.55-.78.93-1.39l.96-1.49.75-1.25.59-1.07c.28-.47.44-.75.49-.84.09-.17.18-.34.26-.5.09-.16.18-.36.28-.57l.18-.02c1.51.97,2.82,1.79,3.93,2.46.43.26.76.46,1.01.6l1.84,1.03v.2c-.5.65-.81,1.07-.93,1.28-.1.17-.22.39-.36.67l-.17.07c-.24-.16-.51-.34-.82-.54-1.01-.64-1.67-1.05-1.96-1.23-1.35-.81-2.31-1.36-2.87-1.64l-1.86,2.98c.69.07,1.24.17,1.67.31.42.13.85.33,1.29.59,1.17.71,1.89,1.58,2.17,2.63.28,1.05.1,2.11-.54,3.17-.51.84-1.25,1.52-2.21,2.02-.96.5-2.09.7-3.39.59-.98-.08-1.97-.42-2.97-1.03-.43-.26-.77-.5-1.03-.74-.26-.23-.56-.57-.9-1.02.13-.3.25-.61.36-.93.1-.32.33-1.05.66-2.18l.76.16c-.08.61-.08,1.17,0,1.66.09.49.28.96.58,1.4.3.44.67.79,1.1,1.05.69.42,1.41.53,2.14.32.73-.2,1.35-.72,1.84-1.54.52-.85.69-1.66.52-2.42-.17-.76-.65-1.37-1.45-1.85-.32-.19-.62-.33-.9-.41-.29-.08-.55-.13-.77-.14-.12-.01-.45,0-.97.03Z"/>
    <path class="cls-1" d="M312.84,213.13c.77-1.03,1.55-1.92,2.33-2.66.51-.48,1.06-.86,1.65-1.14.59-.28,1.16-.44,1.7-.49.53-.05,1.07,0,1.61.16.54.16,1.05.43,1.54.79.98.73,1.58,1.51,1.81,2.34.23.83.17,1.73-.17,2.69-.34.96-1.03,2.14-2.06,3.52-.73.98-1.42,1.8-2.06,2.45-.65.66-1.29,1.16-1.94,1.49-.64.33-1.24.53-1.79.6-.55.07-1.08.03-1.61-.11-.52-.14-1.06-.43-1.63-.85-.68-.51-1.17-1.07-1.48-1.71s-.43-1.32-.37-2.06c.06-.74.31-1.53.76-2.37.45-.83,1.02-1.72,1.72-2.66ZM315.93,213.51c-1,1.33-1.83,2.59-2.5,3.76-.66,1.18-.98,2.05-.95,2.62.04.57.25,1.01.64,1.29.48.36,1.06.41,1.74.15.68-.26,1.73-1.34,3.15-3.24.93-1.24,1.77-2.53,2.54-3.87.41-.72.66-1.3.77-1.74.1-.44.1-.81,0-1.13-.1-.32-.29-.58-.57-.79-.32-.24-.67-.35-1.06-.34-.38.01-.81.2-1.28.56-.67.5-1.49,1.41-2.47,2.72Z"/>
  </g>
  <polygon class="cls-1" points="328.81 258.5 328.54 254.18 352.99 224.34 352.57 229.38 329.02 258.5 328.81 258.5"/>
  <polygon class="cls-1" points="185.52 257.14 186.89 253.98 161.34 222.97 161.76 228.02 185.31 257.14 185.52 257.14"/>
  <path class="cls-1" d="M255.33,94.43c-90.57,0-164,73.43-164,164s73.43,164,164,164,164-73.43,164-164-73.43-164-164-164ZM255.33,420.47c-89.34,0-161.76-72.42-161.76-161.76S165.99,96.96,255.33,96.96s161.76,72.42,161.76,161.76-72.42,161.76-161.76,161.76Z"/>
  <path class="cls-1" d="M255.33,37.94c-121.93,0-220.77,98.84-220.77,220.77s98.84,220.77,220.77,220.77,220.77-98.84,220.77-220.77S377.26,37.94,255.33,37.94ZM255.33,477.38c-120.77,0-218.67-97.9-218.67-218.67S134.56,40.05,255.33,40.05s218.67,97.9,218.67,218.67-97.9,218.67-218.67,218.67Z"/>
</svg>